<mxfile host="Electron" agent="Mozilla/5.0 (X11; Linux x86_64) AppleWebKit/537.36 (KHTML, like Gecko) draw.io/26.0.16 Chrome/132.0.6834.196 Electron/34.2.0 Safari/537.36" version="26.0.16">
  <diagram id="0" name="Page-1">
    <mxGraphModel dx="1434" dy="958" grid="1" gridSize="10" guides="1" tooltips="1" connect="1" arrows="1" fold="1" page="1" pageScale="1" pageWidth="850" pageHeight="1100" math="0" shadow="0">
      <root>
        <mxCell id="0" />
        <mxCell id="1" parent="0" />
        <UserObject label="&lt;b&gt;Ω&amp;nbsp;&lt;/b&gt;Latin&amp;nbsp;▸" link="https://en.wikipedia.org/wiki/Latin_script" linkTarget="_blank" id="88">
          <mxCell style="whiteSpace=wrap;html=1;fontStyle=1;fillColor=#CCCCFF;" parent="1" vertex="1">
            <mxGeometry x="592.9" y="210" width="66" height="30" as="geometry" />
          </mxCell>
        </UserObject>
        <UserObject label="&lt;font style=&quot;font-weight: 700; font-size: 10px;&quot;&gt;文&lt;/font&gt;&lt;span style=&quot;font-size: 11px; font-weight: 700;&quot;&gt;か&lt;/span&gt;&lt;b&gt;Ω&lt;/b&gt;&lt;span style=&quot;font-weight: 700;&quot;&gt;&amp;nbsp;&lt;/span&gt;Egyptian Hieroglyphs&amp;nbsp;&lt;b&gt;◂&amp;nbsp;&lt;/b&gt;&lt;b&gt;▸&lt;/b&gt;" link="https://en.wikipedia.org/wiki/Egyptian_hieroglyphs" linkTarget="_blank" id="2">
          <mxCell style="whiteSpace=wrap;html=1;dashed=1;dashPattern=1 4;fillColor=#E6E6E6;" parent="1" vertex="1">
            <mxGeometry x="259.03000000000003" y="210" width="181" height="30" as="geometry" />
          </mxCell>
        </UserObject>
        <mxCell id="3" value="" style="endArrow=classic;html=1;" parent="1" source="2" target="7" edge="1">
          <mxGeometry width="50" height="50" relative="1" as="geometry">
            <mxPoint x="119.4" y="210" as="sourcePoint" />
            <mxPoint x="539.4" y="310" as="targetPoint" />
          </mxGeometry>
        </mxCell>
        <UserObject label="&lt;font style=&quot;font-style: normal; font-weight: 700; font-size: 11px;&quot;&gt;گ&lt;/font&gt;&lt;span style=&quot;font-style: normal; font-weight: 700;&quot;&gt;&amp;nbsp;&lt;/span&gt;Proto-Sinaitic &lt;span style=&quot;font-style: normal;&quot;&gt;&lt;b&gt;?&lt;/b&gt;&lt;/span&gt;" link="https://en.wikipedia.org/wiki/Proto-Sinaitic_script" id="7">
          <mxCell style="whiteSpace=wrap;html=1;dashed=1;dashPattern=1 4;fillColor=#FFE599;fontStyle=2" parent="1" vertex="1">
            <mxGeometry x="276.37000000000006" y="330" width="107" height="30" as="geometry" />
          </mxCell>
        </UserObject>
        <mxCell id="10" value="" style="endArrow=classic;html=1;" parent="1" source="2" target="16" edge="1">
          <mxGeometry x="145" y="370" width="50" height="50" as="geometry">
            <mxPoint x="149.4" y="400" as="sourcePoint" />
            <mxPoint x="310.125" y="240" as="targetPoint" />
          </mxGeometry>
        </mxCell>
        <mxCell id="13" value="" style="endArrow=classic;html=1;" parent="1" source="7" target="14" edge="1">
          <mxGeometry x="275" y="450" width="50" height="50" as="geometry">
            <mxPoint x="279.4" y="480" as="sourcePoint" />
            <mxPoint x="343.5256250000002" y="450" as="targetPoint" />
          </mxGeometry>
        </mxCell>
        <UserObject label="&lt;b&gt;दे&amp;nbsp;&lt;/b&gt;Ge&#39;ez&amp;nbsp;▸" link="https://en.wikipedia.org/wiki/Ge%CA%BDez_script" linkTarget="_blank" id="14">
          <mxCell style="whiteSpace=wrap;html=1;fontStyle=1;fillColor=#FFE599;" parent="1" vertex="1">
            <mxGeometry x="357.37" y="270" width="63" height="30" as="geometry" />
          </mxCell>
        </UserObject>
        <UserObject label="&lt;b&gt;Ω&amp;nbsp;&lt;/b&gt;Coptic&amp;nbsp;&lt;b&gt;▸&lt;/b&gt;" link="https://en.wikipedia.org/wiki/Coptic_script" linkTarget="_blank" id="16">
          <mxCell style="whiteSpace=wrap;html=1;dashed=1;gradientColor=#CCCCFF;fillColor=#E6E6E6;gradientDirection=east;glass=0;dashPattern=8 8;" parent="1" vertex="1">
            <mxGeometry x="476.4" y="210" width="69" height="30" as="geometry" />
          </mxCell>
        </UserObject>
        <UserObject label="&lt;font style=&quot;font-weight: 700; font-size: 11px;&quot;&gt;گ&lt;/font&gt;&lt;span style=&quot;font-weight: 700;&quot;&gt;&amp;nbsp;&lt;/span&gt;Phoenician&amp;nbsp;&lt;b&gt;◂&lt;/b&gt;" link="https://en.wikipedia.org/wiki/Phoenician_alphabet" linkTarget="_blank" id="18">
          <mxCell style="whiteSpace=wrap;html=1;dashed=1;dashPattern=1 4;fillColor=#FFE599;" parent="1" vertex="1">
            <mxGeometry x="438.4" y="330" width="96" height="30" as="geometry" />
          </mxCell>
        </UserObject>
        <mxCell id="19" value="" style="endArrow=classic;html=1;" parent="1" source="7" target="18" edge="1">
          <mxGeometry x="145" y="365" width="50" height="50" as="geometry">
            <mxPoint x="149.4" y="395" as="sourcePoint" />
            <mxPoint x="209.4" y="395" as="targetPoint" />
          </mxGeometry>
        </mxCell>
        <UserObject label="&lt;b&gt;Ω&amp;nbsp;&lt;/b&gt;Greek&amp;nbsp;▸" link="https://en.wikipedia.org/wiki/Greek_alphabet" linkTarget="_blank" id="20">
          <mxCell style="whiteSpace=wrap;html=1;fontStyle=1;strokeColor=#000000;fillColor=#CCCCFF;" parent="1" vertex="1">
            <mxGeometry x="590.9" y="270" width="70" height="30" as="geometry" />
          </mxCell>
        </UserObject>
        <mxCell id="21" value="" style="endArrow=classic;html=1;" parent="1" source="18" target="20" edge="1">
          <mxGeometry x="155" y="375" width="50" height="50" as="geometry">
            <mxPoint x="309.4" y="395" as="sourcePoint" />
            <mxPoint x="349.4" y="310" as="targetPoint" />
          </mxGeometry>
        </mxCell>
        <mxCell id="22" value="" style="endArrow=classic;html=1;" parent="1" source="20" target="16" edge="1">
          <mxGeometry x="203" y="225" width="50" height="50" as="geometry">
            <mxPoint x="441.5666666666667" y="220" as="sourcePoint" />
            <mxPoint x="438.23333333333323" y="160" as="targetPoint" />
          </mxGeometry>
        </mxCell>
        <UserObject label="&lt;font style=&quot;font-weight: 700; font-size: 11px;&quot;&gt;گ&lt;/font&gt;&lt;span style=&quot;font-weight: 700;&quot;&gt;&amp;nbsp;&lt;/span&gt;Aramaic&amp;nbsp;&lt;b&gt;◂&lt;/b&gt;" link="https://en.wikipedia.org/wiki/Aramaic_alphabet" linkTarget="_blank" id="23">
          <mxCell style="whiteSpace=wrap;html=1;dashed=1;dashPattern=1 4;fillColor=#FFE599;" parent="1" vertex="1">
            <mxGeometry x="445.9" y="450" width="81" height="30" as="geometry" />
          </mxCell>
        </UserObject>
        <mxCell id="25" value="" style="endArrow=classic;html=1;" parent="1" source="18" target="23" edge="1">
          <mxGeometry x="284" y="435" width="50" height="50" as="geometry">
            <mxPoint x="522.5666666666667" y="438" as="sourcePoint" />
            <mxPoint x="519.2333333333332" y="378" as="targetPoint" />
          </mxGeometry>
        </mxCell>
        <UserObject label="&lt;font style=&quot;font-size: 11px;&quot;&gt;گ&lt;/font&gt;&amp;nbsp;&lt;span style=&quot;font-weight: normal;&quot;&gt;Hebrew&lt;/span&gt;&lt;span style=&quot;font-weight: 400;&quot;&gt;&amp;nbsp;&lt;/span&gt;&lt;b&gt;◂&lt;/b&gt;" link="https://en.wikipedia.org/wiki/Hebrew_alphabet" linkTarget="_blank" id="26">
          <mxCell style="whiteSpace=wrap;html=1;fontStyle=1;fillColor=#FFE599;" parent="1" vertex="1">
            <mxGeometry x="317.99999999999994" y="508" width="79" height="30" as="geometry" />
          </mxCell>
        </UserObject>
        <mxCell id="27" value="" style="endArrow=classic;html=1;" parent="1" source="23" target="26" edge="1">
          <mxGeometry x="283" y="565" width="50" height="50" as="geometry">
            <mxPoint x="393.4" y="538" as="sourcePoint" />
            <mxPoint x="393.4" y="598" as="targetPoint" />
          </mxGeometry>
        </mxCell>
        <UserObject label="&lt;b&gt;दे&amp;nbsp;&lt;/b&gt;Brahmi&lt;span style=&quot;font-weight: 700;&quot;&gt;&amp;nbsp;▸&lt;/span&gt;" link="https://en.wikipedia.org/wiki/Brahmi_script" linkTarget="_blank" id="28">
          <mxCell style="whiteSpace=wrap;html=1;dashed=1;dashPattern=1 4;gradientColor=#FFCCCC;gradientDirection=east;fillColor=#CCFFFF;" parent="1" vertex="1">
            <mxGeometry x="365" y="568" width="73" height="30" as="geometry" />
          </mxCell>
        </UserObject>
        <mxCell id="29" value="" style="endArrow=classic;html=1;dashed=1;" parent="1" source="23" target="28" edge="1">
          <mxGeometry x="293" y="575" width="50" height="50" as="geometry">
            <mxPoint x="378.15" y="508" as="sourcePoint" />
            <mxPoint x="325.65" y="538" as="targetPoint" />
          </mxGeometry>
        </mxCell>
        <UserObject label="&lt;b style=&quot;font-style: normal;&quot;&gt;दे&lt;/b&gt;&lt;b style=&quot;font-style: normal; font-size: 11px;&quot;&gt;&amp;nbsp;&lt;/b&gt;Gupta&lt;span style=&quot;font-style: normal;&quot;&gt;&amp;nbsp;&lt;/span&gt;&lt;b style=&quot;font-style: normal;&quot;&gt;▸&lt;/b&gt;" link="https://en.wikipedia.org/wiki/Gupta_script" linkTarget="_blank" id="30">
          <mxCell style="whiteSpace=wrap;html=1;dashed=1;dashPattern=1 4;fillColor=#CCFFFF;fontStyle=2" parent="1" vertex="1">
            <mxGeometry x="265.03000000000003" y="568" width="66" height="30" as="geometry" />
          </mxCell>
        </UserObject>
        <mxCell id="31" value="" style="endArrow=classic;html=1;" parent="1" source="28" target="30" edge="1">
          <mxGeometry x="293" y="575" width="50" height="50" as="geometry">
            <mxPoint x="378.15" y="508" as="sourcePoint" />
            <mxPoint x="322.4" y="544.7524752475248" as="targetPoint" />
          </mxGeometry>
        </mxCell>
        <UserObject label="&lt;b&gt;दे&lt;/b&gt;&lt;b style=&quot;font-size: 11px;&quot;&gt;&amp;nbsp;&lt;/b&gt;Siddham&amp;nbsp;&lt;b&gt;▸&lt;/b&gt;" link="https://en.wikipedia.org/wiki/Siddha%E1%B9%83_script" linkTarget="_blank" id="33">
          <mxCell style="whiteSpace=wrap;html=1;dashed=1;dashPattern=1 4;fillColor=#CCFFFF;" parent="1" vertex="1">
            <mxGeometry x="133.27000000000004" y="450" width="80" height="30" as="geometry" />
          </mxCell>
        </UserObject>
        <mxCell id="34" value="" style="endArrow=classic;html=1;" parent="1" source="30" target="33" edge="1">
          <mxGeometry x="303" y="585" width="50" height="50" as="geometry">
            <mxPoint x="372.3545454545455" y="628" as="sourcePoint" />
            <mxPoint x="314.4" y="655.127659574468" as="targetPoint" />
          </mxGeometry>
        </mxCell>
        <UserObject label="&lt;b&gt;दे&lt;/b&gt;&lt;b style=&quot;font-size: 11px;&quot;&gt;&amp;nbsp;&lt;/b&gt;&lt;span style=&quot;font-weight: normal;&quot;&gt;Tibetan&lt;/span&gt;&lt;span style=&quot;font-weight: 400;&quot;&gt;&amp;nbsp;&lt;/span&gt;&lt;b&gt;▸&lt;/b&gt;" link="https://en.wikipedia.org/wiki/Tibetan_script" linkTarget="_blank" id="39">
          <mxCell style="whiteSpace=wrap;html=1;fontStyle=1;fillColor=#CCFFFF;" parent="1" vertex="1">
            <mxGeometry x="130.9" y="628" width="73" height="30" as="geometry" />
          </mxCell>
        </UserObject>
        <mxCell id="40" value="" style="endArrow=classic;html=1;" parent="1" source="30" target="39" edge="1">
          <mxGeometry x="313" y="595" width="50" height="50" as="geometry">
            <mxPoint x="263.8230769230769" y="697" as="sourcePoint" />
            <mxPoint x="209.9769230769231" y="732" as="targetPoint" />
          </mxGeometry>
        </mxCell>
        <UserObject label="&lt;b&gt;दे&lt;/b&gt;&lt;b style=&quot;font-size: 11px;&quot;&gt;&amp;nbsp;&lt;/b&gt;Bengali–Assamese&lt;span style=&quot;font-weight: 400;&quot;&gt;&amp;nbsp;&lt;/span&gt;&lt;b&gt;▸&lt;/b&gt;" link="https://en.wikipedia.org/wiki/Bengali%E2%80%93Assamese_script" linkTarget="_blank" id="41">
          <mxCell style="whiteSpace=wrap;html=1;fontStyle=1;fillColor=#CCFFFF;" parent="1" vertex="1">
            <mxGeometry x="86" y="330" width="143" height="30" as="geometry" />
          </mxCell>
        </UserObject>
        <mxCell id="42" value="" style="endArrow=classic;html=1;" parent="1" source="EHmsX5NUKX4iTEuCxSPg-271" target="41" edge="1">
          <mxGeometry x="323" y="605" width="50" height="50" as="geometry">
            <mxPoint x="149.4" y="725" as="sourcePoint" />
            <mxPoint x="89.4" y="725" as="targetPoint" />
          </mxGeometry>
        </mxCell>
        <UserObject label="&lt;b&gt;दे&lt;/b&gt;&lt;b style=&quot;font-size: 11px;&quot;&gt;&amp;nbsp;&lt;/b&gt;&lt;i&gt;Nagari&lt;/i&gt;&amp;nbsp;&lt;b&gt;▸&lt;/b&gt;" link="https://en.wikipedia.org/wiki/N%C4%81gar%C4%AB_script" linkTarget="_blank" id="43">
          <mxCell style="whiteSpace=wrap;html=1;dashed=1;dashPattern=1 4;fillColor=#CCFFFF;" parent="1" vertex="1">
            <mxGeometry x="34.15" y="390" width="70.5" height="30" as="geometry" />
          </mxCell>
        </UserObject>
        <UserObject label="&lt;b&gt;दे&lt;/b&gt;&lt;b style=&quot;font-size: 11px;&quot;&gt;&amp;nbsp;&lt;/b&gt;Gujarati&lt;span style=&quot;font-weight: 400;&quot;&gt;&amp;nbsp;&lt;/span&gt;&lt;b&gt;▸&lt;/b&gt;" link="https://en.wikipedia.org/wiki/Gujarati_script" linkTarget="_blank" id="45">
          <mxCell style="whiteSpace=wrap;html=1;fontStyle=1;fillColor=#CCFFFF;" parent="1" vertex="1">
            <mxGeometry x="29.4" y="450" width="80" height="30" as="geometry" />
          </mxCell>
        </UserObject>
        <mxCell id="46" value="" style="endArrow=classic;html=1;" parent="1" source="43" target="45" edge="1">
          <mxGeometry x="342" y="740" width="50" height="50" as="geometry">
            <mxPoint x="309.8705882352941" y="818" as="sourcePoint" />
            <mxPoint x="324.42941176470583" y="873" as="targetPoint" />
          </mxGeometry>
        </mxCell>
        <UserObject label="&lt;b&gt;दे&lt;/b&gt;&lt;b style=&quot;font-size: 11px;&quot;&gt;&amp;nbsp;&lt;/b&gt;Devanagari&lt;span style=&quot;font-weight: 400;&quot;&gt;&amp;nbsp;&lt;/span&gt;&lt;b&gt;▸&lt;/b&gt;" link="https://en.wikipedia.org/wiki/Devanagari" linkTarget="_blank" id="47">
          <mxCell style="whiteSpace=wrap;html=1;fontStyle=1;fillColor=#CCFFFF;" parent="1" vertex="1">
            <mxGeometry x="21.9" y="150" width="97" height="30" as="geometry" />
          </mxCell>
        </UserObject>
        <mxCell id="48" value="" style="endArrow=classic;html=1;" parent="1" source="43" target="47" edge="1">
          <mxGeometry x="352" y="750" width="50" height="50" as="geometry">
            <mxPoint x="300.5764705882352" y="760" as="sourcePoint" />
            <mxPoint x="268.22352941176473" y="815" as="targetPoint" />
          </mxGeometry>
        </mxCell>
        <UserObject label="&lt;b&gt;दे&amp;nbsp;&lt;/b&gt;Khmer ▸" link="https://en.wikipedia.org/wiki/Khmer_script" linkTarget="_blank" id="49">
          <mxCell style="whiteSpace=wrap;html=1;fontStyle=1;fillColor=#FFCCCC;" parent="1" vertex="1">
            <mxGeometry x="459.75" y="748" width="70" height="30" as="geometry" />
          </mxCell>
        </UserObject>
        <UserObject label="&lt;b style=&quot;font-style: normal;&quot;&gt;दे&amp;nbsp;&lt;/b&gt;Pallava&lt;span style=&quot;font-style: normal; font-weight: 700;&quot;&gt;&amp;nbsp;▸&lt;/span&gt;" link="https://en.wikipedia.org/wiki/Pallava_script" linkTarget="_blank" id="50">
          <mxCell style="whiteSpace=wrap;html=1;dashed=1;dashPattern=1 4;fillColor=#FFCCCC;fontStyle=2" parent="1" vertex="1">
            <mxGeometry x="458.75" y="688" width="72" height="30" as="geometry" />
          </mxCell>
        </UserObject>
        <mxCell id="51" value="" style="endArrow=classic;html=1;" parent="1" source="28" target="50" edge="1">
          <mxGeometry x="303" y="585" width="50" height="50" as="geometry">
            <mxPoint x="630.7548387096773" y="553" as="sourcePoint" />
            <mxPoint x="314.4" y="655.127659574468" as="targetPoint" />
          </mxGeometry>
        </mxCell>
        <UserObject label="&lt;b&gt;दे&amp;nbsp;&lt;/b&gt;Thai ▸" link="https://en.wikipedia.org/wiki/Thai_script" linkTarget="_blank" id="52">
          <mxCell style="whiteSpace=wrap;html=1;fontStyle=1;fillColor=#FFCCCC;" parent="1" vertex="1">
            <mxGeometry x="490.37" y="868" width="58" height="30" as="geometry" />
          </mxCell>
        </UserObject>
        <UserObject label="&lt;span title=&quot;Sanskrit-language text&quot;&gt;&lt;span lang=&quot;sa&quot;&gt;दे&amp;nbsp;&lt;/span&gt;&lt;/span&gt;&lt;span style=&quot;font-weight: normal;&quot;&gt;Lao&lt;/span&gt; ▸" link="https://en.wikipedia.org/wiki/Lao_script" id="53">
          <mxCell style="whiteSpace=wrap;html=1;fontStyle=1;fillColor=#FFCCCC;" parent="1" vertex="1">
            <mxGeometry x="608.4" y="810" width="52.5" height="30" as="geometry" />
          </mxCell>
        </UserObject>
        <mxCell id="54" value="" style="endArrow=classic;html=1;" parent="1" source="50" target="49" edge="1">
          <mxGeometry x="651" y="730" width="50" height="50" as="geometry">
            <mxPoint x="609.8705882352941" y="738" as="sourcePoint" />
            <mxPoint x="651.9294117647058" y="793" as="targetPoint" />
          </mxGeometry>
        </mxCell>
        <mxCell id="56" value="" style="endArrow=classic;html=1;" parent="1" source="EHmsX5NUKX4iTEuCxSPg-277" target="53" edge="1">
          <mxGeometry x="850" y="835" width="50" height="50" as="geometry">
            <mxPoint x="567.4" y="843" as="sourcePoint" />
            <mxPoint x="567.4" y="893" as="targetPoint" />
          </mxGeometry>
        </mxCell>
        <UserObject label="&lt;b&gt;दे Mon&lt;/b&gt;–Burmese&amp;nbsp;▸" link="https://en.wikipedia.org/wiki/Mon%E2%80%93Burmese_script" linkTarget="_blank" id="59">
          <mxCell style="whiteSpace=wrap;html=1;fontStyle=1;fillColor=#FFCCCC;" parent="1" vertex="1">
            <mxGeometry x="260" y="810" width="115.75" height="30" as="geometry" />
          </mxCell>
        </UserObject>
        <mxCell id="61" value="" style="endArrow=classic;html=1;dashed=1;" parent="1" source="50" target="EHmsX5NUKX4iTEuCxSPg-281" edge="1">
          <mxGeometry x="636" y="705" width="50" height="50" as="geometry">
            <mxPoint x="583.3523809523809" y="717" as="sourcePoint" />
            <mxPoint x="737.4" y="718" as="targetPoint" />
          </mxGeometry>
        </mxCell>
        <UserObject label="&lt;b&gt;दे&amp;nbsp;&lt;/b&gt;Tamil&amp;nbsp;▸" link="https://en.wikipedia.org/wiki/Tamil_script" linkTarget="_blank" id="62">
          <mxCell style="whiteSpace=wrap;html=1;fontStyle=1;fillColor=#FFCCCC;" parent="1" vertex="1">
            <mxGeometry x="351.37" y="688" width="65" height="30" as="geometry" />
          </mxCell>
        </UserObject>
        <UserObject label="&lt;b style=&quot;font-style: normal;&quot;&gt;दे&amp;nbsp;&lt;/b&gt;Kadamba&lt;span style=&quot;font-style: normal; font-weight: 700;&quot;&gt;&amp;nbsp;▸&lt;/span&gt;" link="https://en.wikipedia.org/wiki/Kadamba_script" linkTarget="_blank" id="64">
          <mxCell style="whiteSpace=wrap;html=1;dashed=1;dashPattern=1 4;fillColor=#FFCCCC;fontStyle=2" parent="1" vertex="1">
            <mxGeometry x="221" y="688" width="87.5" height="30" as="geometry" />
          </mxCell>
        </UserObject>
        <UserObject label="&lt;b&gt;दे&amp;nbsp;&lt;/b&gt;Telugu&amp;nbsp;▸" link="https://en.wikipedia.org/wiki/Telugu_script" linkTarget="_blank" id="66">
          <mxCell style="whiteSpace=wrap;html=1;fontStyle=1;fillColor=#FFCCCC;" parent="1" vertex="1">
            <mxGeometry x="230.62" y="628" width="70" height="30" as="geometry" />
          </mxCell>
        </UserObject>
        <UserObject label="&lt;b&gt;दे&amp;nbsp;&lt;/b&gt;Kannada&amp;nbsp;▸" link="https://en.wikipedia.org/wiki/Kannada_script" linkTarget="_blank" id="67">
          <mxCell style="whiteSpace=wrap;html=1;fontStyle=1;fillColor=#FFCCCC;" parent="1" vertex="1">
            <mxGeometry x="222.75" y="748" width="85.75" height="30" as="geometry" />
          </mxCell>
        </UserObject>
        <mxCell id="69" value="" style="endArrow=classic;html=1;" parent="1" source="64" target="66" edge="1">
          <mxGeometry x="584" y="637" width="50" height="50" as="geometry">
            <mxPoint x="526.775" y="653" as="sourcePoint" />
            <mxPoint x="595.525" y="623" as="targetPoint" />
          </mxGeometry>
        </mxCell>
        <mxCell id="71" value="" style="endArrow=classic;html=1;" parent="1" source="64" target="67" edge="1">
          <mxGeometry x="740" y="517" width="50" height="50" as="geometry">
            <mxPoint x="682.775" y="533" as="sourcePoint" />
            <mxPoint x="751.525" y="503" as="targetPoint" />
          </mxGeometry>
        </mxCell>
        <UserObject label="&lt;font style=&quot;font-weight: 700; font-size: 11px;&quot;&gt;گ&lt;/font&gt;&lt;span style=&quot;font-weight: 700;&quot;&gt;&amp;nbsp;&lt;/span&gt;Syriac&amp;nbsp;&lt;b&gt;◂&lt;/b&gt;" link="https://en.wikipedia.org/wiki/Syriac_alphabet" linkTarget="_blank" id="72">
          <mxCell style="whiteSpace=wrap;html=1;dashed=1;fillColor=#FFE599;dashPattern=8 8;" parent="1" vertex="1">
            <mxGeometry x="598.9" y="390" width="69" height="30" as="geometry" />
          </mxCell>
        </UserObject>
        <mxCell id="73" value="" style="endArrow=classic;html=1;" parent="1" source="23" target="72" edge="1">
          <mxGeometry x="496" y="582" width="50" height="50" as="geometry">
            <mxPoint x="438.775" y="598" as="sourcePoint" />
            <mxPoint x="507.525" y="568" as="targetPoint" />
          </mxGeometry>
        </mxCell>
        <mxCell id="75" value="" style="endArrow=classic;html=1;" parent="1" source="23" target="76" edge="1">
          <mxGeometry x="662" y="472" width="50" height="50" as="geometry">
            <mxPoint x="569.4" y="488" as="sourcePoint" />
            <mxPoint x="474.9" y="434" as="targetPoint" />
          </mxGeometry>
        </mxCell>
        <UserObject label="&lt;font style=&quot;font-size: 11px;&quot;&gt;گ&lt;/font&gt;&amp;nbsp;Arabic&amp;nbsp;&lt;b&gt;◂&lt;/b&gt;" link="https://en.wikipedia.org/wiki/Arabic_script" linkTarget="_blank" id="76">
          <mxCell style="whiteSpace=wrap;html=1;fontStyle=1;fillColor=#FFE599;" parent="1" vertex="1">
            <mxGeometry x="561.78" y="450" width="74" height="30" as="geometry" />
          </mxCell>
        </UserObject>
        <mxCell id="79" value="" style="endArrow=classic;html=1;" parent="1" source="72" target="80" edge="1">
          <mxGeometry x="672" y="482" width="50" height="50" as="geometry">
            <mxPoint x="559.4" y="470.55102040816337" as="sourcePoint" />
            <mxPoint x="584.4" y="378.9999999999999" as="targetPoint" />
          </mxGeometry>
        </mxCell>
        <UserObject label="&lt;b&gt;&amp;nbsp;Ω&amp;nbsp;&lt;/b&gt;Mongolian&lt;b&gt;▼&lt;/b&gt;" link="https://en.wikipedia.org/wiki/Mongolian_script" linkTarget="_blank" id="80">
          <mxCell style="whiteSpace=wrap;html=1;fillColor=#FFE599;" parent="1" vertex="1">
            <mxGeometry x="709.4" y="390" width="94" height="30" as="geometry" />
          </mxCell>
        </UserObject>
        <UserObject label="&lt;b&gt;Ω&amp;nbsp;&lt;/b&gt;Georgian&lt;span style=&quot;font-weight: 700;&quot;&gt;&amp;nbsp;▸&lt;/span&gt;" link="https://en.wikipedia.org/wiki/Georgian_scripts" linkTarget="_blank" id="86">
          <mxCell style="whiteSpace=wrap;html=1;fontStyle=0;fillColor=#CCCCFF;gradientColor=#E6E6E6;gradientDirection=west;" parent="1" vertex="1">
            <mxGeometry x="583.9" y="330" width="84" height="30" as="geometry" />
          </mxCell>
        </UserObject>
        <UserObject label="&lt;b&gt;Ω&amp;nbsp;&lt;/b&gt;&lt;span style=&quot;font-weight: normal;&quot;&gt;Armenian&lt;/span&gt;&amp;nbsp;▸" link="https://en.wikipedia.org/wiki/Armenian_alphabet" linkTarget="_blank" id="87">
          <mxCell style="whiteSpace=wrap;html=1;fontStyle=1;fillColor=#CCCCFF;" parent="1" vertex="1">
            <mxGeometry x="711.9100000000001" y="330" width="90" height="30" as="geometry" />
          </mxCell>
        </UserObject>
        <UserObject label="&lt;b&gt;Ω&amp;nbsp;&lt;/b&gt;Cyrillic&amp;nbsp;▸" link="https://en.wikipedia.org/wiki/Cyrillic_script" linkTarget="_blank" id="89">
          <mxCell style="whiteSpace=wrap;html=1;fontStyle=1;fillColor=#CCCCFF;" parent="1" vertex="1">
            <mxGeometry x="725.4" y="270" width="76" height="30" as="geometry" />
          </mxCell>
        </UserObject>
        <mxCell id="90" value="" style="endArrow=classic;html=1;" parent="1" source="20" target="89" edge="1">
          <mxGeometry x="175" y="395" width="50" height="50" as="geometry">
            <mxPoint x="434.4" y="285.9677419354839" as="sourcePoint" />
            <mxPoint x="524.4" y="288.8709677419355" as="targetPoint" />
          </mxGeometry>
        </mxCell>
        <mxCell id="92" value="" style="endArrow=classic;html=1;" parent="1" source="20" target="87" edge="1">
          <mxGeometry x="195" y="415" width="50" height="50" as="geometry">
            <mxPoint x="410.025" y="270" as="sourcePoint" />
            <mxPoint x="451.275" y="160" as="targetPoint" />
          </mxGeometry>
        </mxCell>
        <mxCell id="93" value="" style="endArrow=classic;html=1;dashed=1;" parent="1" source="20" target="86" edge="1">
          <mxGeometry x="303" y="585" width="50" height="50" as="geometry">
            <mxPoint x="404.4" y="500" as="sourcePoint" />
            <mxPoint x="404.4" y="590" as="targetPoint" />
          </mxGeometry>
        </mxCell>
        <mxCell id="111" value="" style="endArrow=classic;html=1;" parent="1" source="50" target="62" edge="1">
          <mxGeometry x="409" y="580" width="50" height="50" as="geometry">
            <mxPoint x="519.4" y="745.1951219512196" as="sourcePoint" />
            <mxPoint x="570.4" y="536.4150943396226" as="targetPoint" />
          </mxGeometry>
        </mxCell>
        <UserObject label="&lt;b&gt;दे&amp;nbsp;&lt;/b&gt;Tai Viet&lt;span style=&quot;font-weight: 700;&quot;&gt;&amp;nbsp;▸&lt;/span&gt;" link="https://en.wikipedia.org/wiki/Tai_Viet_script" linkTarget="_blank" id="115">
          <mxCell style="whiteSpace=wrap;html=1;fillColor=#FFCCCC;" parent="1" vertex="1">
            <mxGeometry x="563.78" y="868" width="70" height="30" as="geometry" />
          </mxCell>
        </UserObject>
        <mxCell id="116" value="" style="endArrow=classic;html=1;" parent="1" source="EHmsX5NUKX4iTEuCxSPg-277" target="115" edge="1">
          <mxGeometry x="860" y="845" width="50" height="50" as="geometry">
            <mxPoint x="592.4" y="908" as="sourcePoint" />
            <mxPoint x="619.4" y="948" as="targetPoint" />
          </mxGeometry>
        </mxCell>
        <UserObject label="&lt;b&gt;Ω&lt;/b&gt;&lt;span style=&quot;font-size: 11px;&quot;&gt;か&amp;nbsp;&lt;/span&gt;Hangul ▸&lt;b&gt;▼&lt;/b&gt;" link="https://en.wikipedia.org/wiki/Hangul" linkTarget="_blank" id="118">
          <mxCell style="whiteSpace=wrap;html=1;fontStyle=1;fillColor=#E6E6E6;" parent="1" vertex="1">
            <mxGeometry x="21.9" y="1048.5" width="97" height="30" as="geometry" />
          </mxCell>
        </UserObject>
        <UserObject label="&lt;span style=&quot;font-weight: 700;&quot;&gt;&lt;font style=&quot;font-size: 10px;&quot;&gt;&amp;nbsp;文&lt;/font&gt;&lt;/span&gt;&lt;span style=&quot;font-size: 11px; font-weight: 700;&quot;&gt;&amp;nbsp;&lt;/span&gt;Oracle Bone&lt;b&gt;▼&lt;/b&gt;" link="https://en.wikipedia.org/wiki/Oracle_bone_script" linkTarget="_blank" id="120">
          <mxCell style="whiteSpace=wrap;html=1;dashed=1;dashPattern=1 4;fillColor=#FFCCFF;" parent="1" vertex="1">
            <mxGeometry x="21.4" y="988" width="104.5" height="30" as="geometry" />
          </mxCell>
        </UserObject>
        <UserObject label="&lt;font style=&quot;font-size: 10px;&quot;&gt;文&lt;/font&gt; Simplified Chinese&lt;b&gt;▼&lt;/b&gt;▸" link="https://en.wikipedia.org/wiki/Simplified_Chinese_characters" linkTarget="_blank" id="123">
          <mxCell style="whiteSpace=wrap;html=1;fontStyle=1;fillColor=#FFCCFF;" parent="1" vertex="1">
            <mxGeometry x="164.5" y="1048.5" width="157" height="30" as="geometry" />
          </mxCell>
        </UserObject>
        <mxCell id="124" value="" style="endArrow=classic;html=1;" parent="1" source="181" target="123" edge="1">
          <mxGeometry x="878" y="845" width="50" height="50" as="geometry">
            <mxPoint x="118.5" y="1062.2219101123596" as="sourcePoint" />
            <mxPoint x="185.5" y="1064.1039325842696" as="targetPoint" />
          </mxGeometry>
        </mxCell>
        <UserObject label="&lt;font style=&quot;&quot;&gt;&lt;span style=&quot;font-weight: 700;&quot;&gt;&lt;font style=&quot;font-size: 11px;&quot;&gt;&amp;nbsp;か&lt;/font&gt;&lt;/span&gt;&lt;span style=&quot;font-size: 12px; font-weight: 700;&quot;&gt;&amp;nbsp;&lt;/span&gt;Man&#39;yogana&lt;/font&gt;&lt;b&gt;▼&lt;/b&gt;" link="https://en.wikipedia.org/wiki/Man%27y%C5%8Dgana" id="125">
          <mxCell style="whiteSpace=wrap;html=1;dashed=1;dashPattern=1 4;fillColor=#FFCCFF;fontFamily=Helvetica;fontSize=12;" parent="1" vertex="1">
            <mxGeometry x="351.36999999999995" y="988" width="102" height="30" as="geometry" />
          </mxCell>
        </UserObject>
        <mxCell id="127" value="" style="endArrow=classic;html=1;" parent="1" source="181" target="125" edge="1">
          <mxGeometry x="888" y="855" width="50" height="50" as="geometry">
            <mxPoint x="269.19411764705876" y="1108" as="sourcePoint" />
            <mxPoint x="272.42941176470583" y="1158" as="targetPoint" />
          </mxGeometry>
        </mxCell>
        <UserObject label="&lt;font style=&quot;font-size: 11px;&quot;&gt;か&lt;/font&gt; Hiragana&lt;b&gt;▼&lt;/b&gt;▸" link="https://en.wikipedia.org/wiki/Hiragana" linkTarget="_blank" id="128">
          <mxCell style="whiteSpace=wrap;html=1;fontStyle=1;fillColor=#FFCCFF;fontFamily=Helvetica;" parent="1" vertex="1">
            <mxGeometry x="353.85999999999996" y="1049" width="97" height="30" as="geometry" />
          </mxCell>
        </UserObject>
        <UserObject label="&lt;font style=&quot;font-size: 11px;&quot;&gt;か&lt;/font&gt; Katakana&lt;b&gt;▼&lt;/b&gt;▸" link="https://en.wikipedia.org/wiki/Katakana" linkTarget="_blank" id="130">
          <mxCell style="whiteSpace=wrap;html=1;fontStyle=1;fillColor=#FFCCFF;" parent="1" vertex="1">
            <mxGeometry x="493.4" y="1049" width="100" height="30" as="geometry" />
          </mxCell>
        </UserObject>
        <mxCell id="131" value="" style="endArrow=classic;html=1;" parent="1" source="125" target="130" edge="1">
          <mxGeometry x="897" y="920" width="50" height="50" as="geometry">
            <mxPoint x="118.41" y="1118" as="sourcePoint" />
            <mxPoint x="179.41" y="1118" as="targetPoint" />
          </mxGeometry>
        </mxCell>
        <UserObject label="&lt;span style=&quot;font-weight: 700; font-size: 11px;&quot;&gt;&lt;font style=&quot;font-size: 11px;&quot;&gt;か&lt;/font&gt;&amp;nbsp;&lt;/span&gt;Hentaigana&lt;b&gt;▼&lt;/b&gt;&lt;span style=&quot;font-weight: 700;&quot;&gt;▸&lt;/span&gt;" link="https://en.wikipedia.org/wiki/Hentaigana" linkTarget="_blank" id="132">
          <mxCell style="whiteSpace=wrap;html=1;dashed=1;fillColor=#FFCCFF;dashPattern=8 8;" parent="1" vertex="1">
            <mxGeometry x="486.4" y="988" width="107" height="30" as="geometry" />
          </mxCell>
        </UserObject>
        <mxCell id="133" value="" style="endArrow=classic;html=1;" parent="1" source="125" target="128" edge="1">
          <mxGeometry x="907" y="930" width="50" height="50" as="geometry">
            <mxPoint x="235.6007692307693" y="1078" as="sourcePoint" />
            <mxPoint x="295.63923076923066" y="1113" as="targetPoint" />
          </mxGeometry>
        </mxCell>
        <mxCell id="136" value="" style="endArrow=classic;html=1;" parent="1" source="125" target="132" edge="1">
          <mxGeometry x="1173" y="930" width="50" height="50" as="geometry">
            <mxPoint x="394.40999999999997" y="1148" as="sourcePoint" />
            <mxPoint x="455.40999999999997" y="1148" as="targetPoint" />
          </mxGeometry>
        </mxCell>
        <mxCell id="137" value="History of Modern Writing Scripts&lt;br&gt;" style="text;html=1;strokeColor=none;fillColor=none;align=center;verticalAlign=middle;whiteSpace=wrap;overflow=hidden;dashed=1;dashPattern=1 4;fontSize=24;fontFamily=Times New Roman;fontStyle=1" parent="1" vertex="1">
          <mxGeometry x="227.99999999999997" y="10" width="370" height="36" as="geometry" />
        </mxCell>
        <UserObject label="&lt;span style=&quot;font-size: 11px; font-weight: 700;&quot;&gt;か&amp;nbsp;&lt;/span&gt;Cherokee&lt;span style=&quot;font-weight: 700;&quot;&gt;&amp;nbsp;▸&lt;/span&gt;" link="https://en.wikipedia.org/wiki/Cherokee_syllabary" linkTarget="_blank" id="138">
          <mxCell style="whiteSpace=wrap;html=1;fillColor=#CCCCFF;" parent="1" vertex="1">
            <mxGeometry x="621.4" y="150" width="88" height="30" as="geometry" />
          </mxCell>
        </UserObject>
        <mxCell id="139" value="" style="endArrow=classic;html=1;" parent="1" source="88" target="138" edge="1">
          <mxGeometry x="195" y="415" width="50" height="50" as="geometry">
            <mxPoint x="401.6368421052631" y="260" as="sourcePoint" />
            <mxPoint x="389.66315789473686" y="195" as="targetPoint" />
          </mxGeometry>
        </mxCell>
        <UserObject label="&lt;span style=&quot;font-size: 11px; font-weight: 700;&quot;&gt;か&amp;nbsp;&lt;/span&gt;Vai&lt;span style=&quot;font-weight: 700;&quot;&gt;&amp;nbsp;▸&lt;/span&gt;" link="https://en.wikipedia.org/wiki/Vai_syllabary" linkTarget="_blank" id="140">
          <mxCell style="whiteSpace=wrap;html=1;fillColor=#CCCCFF;" parent="1" vertex="1">
            <mxGeometry x="748.59" y="150" width="54.5" height="30" as="geometry" />
          </mxCell>
        </UserObject>
        <mxCell id="141" value="" style="endArrow=classic;html=1;dashed=1;" parent="1" source="138" target="140" edge="1">
          <mxGeometry x="95" y="428" width="50" height="50" as="geometry">
            <mxPoint x="249.7636363636365" y="168" as="sourcePoint" />
            <mxPoint x="204.53636363636375" y="143" as="targetPoint" />
          </mxGeometry>
        </mxCell>
        <UserObject label="&lt;b&gt;दे&amp;nbsp;&lt;/b&gt;Canadian Aboriginal Syllabics&amp;nbsp;&lt;span style=&quot;font-weight: 700;&quot;&gt;▸&lt;/span&gt;" link="https://en.wikipedia.org/wiki/Canadian_Aboriginal_syllabics" linkTarget="_blank" id="142">
          <mxCell style="whiteSpace=wrap;html=1;fillColor=#CCFFFF;gradientColor=#E6E6E6;gradientDirection=west;" parent="1" vertex="1">
            <mxGeometry x="169.25" y="150" width="191" height="30" as="geometry" />
          </mxCell>
        </UserObject>
        <mxCell id="143" value="" style="endArrow=classic;html=1;" parent="1" source="47" target="142" edge="1">
          <mxGeometry x="364" y="850" width="50" height="50" as="geometry">
            <mxPoint x="379.3473684210527" y="870" as="sourcePoint" />
            <mxPoint x="409.45263157894726" y="935" as="targetPoint" />
          </mxGeometry>
        </mxCell>
        <UserObject label="&lt;b style=&quot;font-style: normal;&quot;&gt;दे&lt;/b&gt;&lt;b style=&quot;font-style: normal;&quot;&gt;&amp;nbsp;&lt;/b&gt;Pitman Shorthand&amp;nbsp;&lt;span style=&quot;font-style: normal; font-weight: 700;&quot;&gt;▸&lt;/span&gt;" link="https://en.wikipedia.org/wiki/Pitman_shorthand" linkTarget="_blank" id="144">
          <mxCell style="whiteSpace=wrap;html=1;dashed=1;fillColor=#E6E6E6;fontStyle=2;dashPattern=8 8;" parent="1" vertex="1">
            <mxGeometry x="115" y="210" width="129.4" height="30" as="geometry" />
          </mxCell>
        </UserObject>
        <mxCell id="145" value="" style="endArrow=classic;html=1;" parent="1" source="144" target="142" edge="1">
          <mxGeometry x="898" y="865" width="50" height="50" as="geometry">
            <mxPoint x="335.4" y="1055" as="sourcePoint" />
            <mxPoint x="396.4" y="1055" as="targetPoint" />
          </mxGeometry>
        </mxCell>
        <UserObject label="&lt;b&gt;दे&lt;/b&gt;&lt;b style=&quot;font-size: 11px;&quot;&gt;&amp;nbsp;&lt;/b&gt;Gurmukhi&lt;span style=&quot;font-weight: 400;&quot;&gt;&amp;nbsp;&lt;/span&gt;&lt;b&gt;▸&lt;/b&gt;" link="https://en.wikipedia.org/wiki/Gurmukhi" linkTarget="_blank" id="146">
          <mxCell style="whiteSpace=wrap;html=1;fontStyle=1;fillColor=#CCFFFF;" parent="1" vertex="1">
            <mxGeometry x="21.4" y="568" width="91" height="30" as="geometry" />
          </mxCell>
        </UserObject>
        <UserObject label="&lt;b style=&quot;font-style: normal;&quot;&gt;दे&amp;nbsp;&lt;/b&gt;&lt;span style=&quot;font-style: normal;&quot;&gt;Kawi&lt;/span&gt;&lt;span style=&quot;font-style: normal; font-weight: 700;&quot;&gt;&amp;nbsp;▸&lt;/span&gt;" link="https://en.wikipedia.org/wiki/Kawi_script" linkTarget="_blank" id="151">
          <mxCell style="whiteSpace=wrap;html=1;dashed=1;dashPattern=1 4;fillColor=#FFCCCC;fontStyle=2" parent="1" vertex="1">
            <mxGeometry x="623.15" y="628" width="63" height="30" as="geometry" />
          </mxCell>
        </UserObject>
        <mxCell id="152" value="" style="endArrow=classic;html=1;" parent="1" source="50" target="151" edge="1">
          <mxGeometry x="661" y="740" width="50" height="50" as="geometry">
            <mxPoint x="517.1826086956522" y="698" as="sourcePoint" />
            <mxPoint x="572.6173913043477" y="783" as="targetPoint" />
          </mxGeometry>
        </mxCell>
        <mxCell id="160" value="" style="endArrow=classic;html=1;" parent="1" source="T748fFu64r8brhYCckHo-256" target="162" edge="1">
          <mxGeometry x="313" y="595" width="50" height="50" as="geometry">
            <mxPoint x="596.4" y="583" as="sourcePoint" />
            <mxPoint x="542.8109589041097" y="584" as="targetPoint" />
          </mxGeometry>
        </mxCell>
        <UserObject label="&lt;b&gt;दे&amp;nbsp;&lt;/b&gt;Sinhala&amp;nbsp;▸" link="https://en.wikipedia.org/wiki/Sinhala_script" linkTarget="_blank" id="161">
          <mxCell style="whiteSpace=wrap;html=1;fontStyle=1;fillColor=#FFCCCC;" parent="1" vertex="1">
            <mxGeometry x="357.37" y="628" width="75" height="30" as="geometry" />
          </mxCell>
        </UserObject>
        <UserObject label="&lt;b&gt;दे&amp;nbsp;&lt;/b&gt;Malayalam&amp;nbsp;▸" link="https://en.wikipedia.org/wiki/Malayalam_script" linkTarget="_blank" id="162">
          <mxCell style="whiteSpace=wrap;html=1;fontStyle=1;fillColor=#FFCCCC;" parent="1" vertex="1">
            <mxGeometry x="560.4" y="748" width="95" height="30" as="geometry" />
          </mxCell>
        </UserObject>
        <UserObject label="&lt;b&gt;दे&amp;nbsp;&lt;/b&gt;&lt;span style=&quot;font-weight: normal;&quot;&gt;Sundanese&lt;/span&gt;&amp;nbsp;▸" link="https://en.wikipedia.org/wiki/Sundanese_script" id="165">
          <mxCell style="whiteSpace=wrap;html=1;fontStyle=1;fillColor=#FFCCCC;" parent="1" vertex="1">
            <mxGeometry x="677" y="810" width="98" height="30" as="geometry" />
          </mxCell>
        </UserObject>
        <mxCell id="166" value="" style="endArrow=classic;html=1;" parent="1" source="151" target="165" edge="1">
          <mxGeometry x="620" y="850" width="50" height="50" as="geometry">
            <mxPoint x="459.4" y="712.2688679245284" as="sourcePoint" />
            <mxPoint x="409.80909090909097" y="738" as="targetPoint" />
          </mxGeometry>
        </mxCell>
        <UserObject label="&lt;span style=&quot;font-weight: 700;&quot;&gt;&lt;font style=&quot;font-size: 10px;&quot;&gt;文&lt;/font&gt;&lt;/span&gt;&lt;span style=&quot;font-size: 11px; font-weight: 700;&quot;&gt;&amp;nbsp;&lt;/span&gt;&lt;i&gt;Classical Yi&lt;/i&gt;&amp;nbsp;&lt;b&gt;▼&lt;/b&gt;" link="https://en.wikipedia.org/wiki/Yi_script" linkTarget="_blank" id="167">
          <mxCell style="whiteSpace=wrap;html=1;fillColor=#E6E6E6;" parent="1" vertex="1">
            <mxGeometry x="612.42" y="988" width="107.58" height="30" as="geometry" />
          </mxCell>
        </UserObject>
        <UserObject label="&lt;span style=&quot;font-size: 11px; font-weight: 700;&quot;&gt;&amp;nbsp;か&amp;nbsp;&lt;/span&gt;Modern Yi&amp;nbsp;&lt;span style=&quot;font-weight: 700;&quot;&gt;▸&lt;/span&gt;" link="https://en.wikipedia.org/wiki/Yi_script" linkTarget="_blank" id="168">
          <mxCell style="whiteSpace=wrap;html=1;fillColor=#E6E6E6;" parent="1" vertex="1">
            <mxGeometry x="619.54" y="1048.5" width="93.34" height="30" as="geometry" />
          </mxCell>
        </UserObject>
        <mxCell id="169" value="" style="endArrow=classic;html=1;" parent="1" source="167" target="168" edge="1">
          <mxGeometry x="1084" y="945" width="50" height="50" as="geometry">
            <mxPoint x="1214.5300000000002" y="1151" as="sourcePoint" />
            <mxPoint x="1259.5300000000002" y="1211" as="targetPoint" />
          </mxGeometry>
        </mxCell>
        <UserObject label="&lt;font style=&quot;font-weight: 700; font-size: 11px;&quot;&gt;گ&lt;/font&gt;&lt;span style=&quot;font-weight: 700;&quot;&gt;&amp;nbsp;&lt;/span&gt;&lt;i&gt;Tifinagh&lt;/i&gt;▲&lt;b&gt;◂&lt;/b&gt;" link="https://en.wikipedia.org/wiki/Tifinagh" linkTarget="_blank" id="170">
          <mxCell style="whiteSpace=wrap;html=1;dashed=1;fillColor=#FFE599;dashPattern=8 8;" parent="1" vertex="1">
            <mxGeometry x="366.37" y="390" width="87" height="30" as="geometry" />
          </mxCell>
        </UserObject>
        <UserObject label="&lt;b&gt;दे&amp;nbsp;&lt;/b&gt;Thaana&amp;nbsp;&lt;b&gt;◂&lt;/b&gt;" link="https://en.wikipedia.org/wiki/Thaana" linkTarget="_blank" id="174">
          <mxCell style="whiteSpace=wrap;html=1;fillColor=#FFE599;gradientColor=none;gradientDirection=east;" parent="1" vertex="1">
            <mxGeometry x="486.4" y="508" width="74" height="30" as="geometry" />
          </mxCell>
        </UserObject>
        <UserObject label="&lt;b&gt;दे&amp;nbsp;&lt;/b&gt;Batak&lt;span style=&quot;font-weight: 700;&quot;&gt;&amp;nbsp;▸&lt;/span&gt;" link="https://en.wikipedia.org/wiki/Batak_script" linkTarget="_blank" id="177">
          <mxCell style="whiteSpace=wrap;html=1;fillColor=#FFCCCC;dashed=1;dashPattern=8 8;" parent="1" vertex="1">
            <mxGeometry x="521.15" y="628" width="65" height="30" as="geometry" />
          </mxCell>
        </UserObject>
        <mxCell id="180" value="" style="endArrow=classic;html=1;dashed=1;" parent="1" source="151" target="177" edge="1">
          <mxGeometry x="303" y="585" width="50" height="50" as="geometry">
            <mxPoint x="438.43000000000006" y="473.5" as="sourcePoint" />
            <mxPoint x="432.1299999999999" y="543.5" as="targetPoint" />
          </mxGeometry>
        </mxCell>
        <UserObject label="&lt;span style=&quot;font-weight: 700;&quot;&gt;&lt;font style=&quot;font-size: 10px;&quot;&gt;&amp;nbsp;文&lt;/font&gt;&lt;/span&gt;&lt;span style=&quot;font-size: 11px; font-weight: 700;&quot;&gt;&amp;nbsp;&lt;/span&gt;Chinese script styles&lt;b&gt;▼&lt;/b&gt;" link="https://en.wikipedia.org/wiki/Chinese_script_styles" linkTarget="_blank" id="181">
          <mxCell style="whiteSpace=wrap;html=1;fillColor=#FFCCFF;" parent="1" vertex="1">
            <mxGeometry x="168" y="988" width="150" height="30" as="geometry" />
          </mxCell>
        </UserObject>
        <mxCell id="183" value="" style="endArrow=classic;html=1;" parent="1" source="181" target="119" edge="1">
          <mxGeometry x="963" y="820" width="50" height="50" as="geometry">
            <mxPoint x="196" y="1071" as="sourcePoint" />
            <mxPoint x="237.5" y="1088.2916666666667" as="targetPoint" />
          </mxGeometry>
        </mxCell>
        <UserObject label="&lt;b&gt;Ω&lt;/b&gt;&lt;span style=&quot;font-size: 11px;&quot;&gt;&lt;b&gt;か&lt;/b&gt;&lt;/span&gt;&amp;nbsp;Bopomofo&lt;b&gt;▼&lt;/b&gt;&lt;span style=&quot;font-weight: 700;&quot;&gt;▸&lt;/span&gt;" link="https://en.wikipedia.org/wiki/Bopomofo" linkTarget="_blank" id="184">
          <mxCell style="whiteSpace=wrap;html=1;dashed=1;fillColor=#FFCCFF;dashPattern=8 8;" parent="1" vertex="1">
            <mxGeometry x="21.4" y="927.5" width="111" height="31" as="geometry" />
          </mxCell>
        </UserObject>
        <mxCell id="185" value="" style="endArrow=classic;html=1;" parent="1" source="181" target="184" edge="1">
          <mxGeometry x="973" y="830" width="50" height="50" as="geometry">
            <mxPoint x="250.4" y="1068.7978339350182" as="sourcePoint" />
            <mxPoint x="307.4" y="1064.6823104693142" as="targetPoint" />
          </mxGeometry>
        </mxCell>
        <UserObject label="&lt;b&gt;दे&amp;nbsp;&lt;/b&gt;Buhid&lt;span style=&quot;font-weight: 700;&quot;&gt;&amp;nbsp;▸&lt;/span&gt;" link="https://en.wikipedia.org/wiki/Buhid_script" linkTarget="_blank" id="190">
          <mxCell style="whiteSpace=wrap;html=1;fillColor=#FFCCCC;" parent="1" vertex="1">
            <mxGeometry x="596.4" y="508" width="64.5" height="30" as="geometry" />
          </mxCell>
        </UserObject>
        <mxCell id="191" value="" style="endArrow=classic;html=1;dashed=1;" parent="1" source="151" target="EHmsX5NUKX4iTEuCxSPg-285" edge="1">
          <mxGeometry x="671" y="750" width="50" height="50" as="geometry">
            <mxPoint x="519.4" y="628" as="sourcePoint" />
            <mxPoint x="607.4" y="684.7298578199052" as="targetPoint" />
          </mxGeometry>
        </mxCell>
        <UserObject label="&lt;b&gt;दे&amp;nbsp;&lt;/b&gt;Cham&lt;span style=&quot;font-weight: 700;&quot;&gt;&amp;nbsp;▸&lt;/span&gt;" link="https://en.wikipedia.org/wiki/Cham_script" linkTarget="_blank" id="197">
          <mxCell style="whiteSpace=wrap;html=1;fontStyle=0;fillColor=#FFCCCC;" parent="1" vertex="1">
            <mxGeometry x="461.75" y="568" width="66" height="30" as="geometry" />
          </mxCell>
        </UserObject>
        <mxCell id="198" value="" style="endArrow=classic;html=1;" parent="1" source="50" target="197" edge="1">
          <mxGeometry x="691" y="770" width="50" height="50" as="geometry">
            <mxPoint x="594.4" y="876" as="sourcePoint" />
            <mxPoint x="522.4" y="843.2569169960475" as="targetPoint" />
          </mxGeometry>
        </mxCell>
        <UserObject label="&lt;b&gt;दे&amp;nbsp;&lt;/b&gt;Hanuno&#39;o&lt;span style=&quot;font-weight: 700;&quot;&gt;&amp;nbsp;▸&lt;/span&gt;" link="https://en.wikipedia.org/wiki/Hanunoo_script" linkTarget="_blank" id="199">
          <mxCell style="whiteSpace=wrap;html=1;fillColor=#FFCCCC;" parent="1" vertex="1">
            <mxGeometry x="717.91" y="508" width="84" height="30" as="geometry" />
          </mxCell>
        </UserObject>
        <UserObject label="&lt;b&gt;दे&lt;/b&gt;&lt;b style=&quot;font-size: 11px;&quot;&gt;&amp;nbsp;&lt;/b&gt;Pahawh Hmong&amp;nbsp;&lt;span style=&quot;font-weight: 700;&quot;&gt;▸&lt;/span&gt;" link="https://en.wikipedia.org/wiki/Pahawh_Hmong" linkTarget="_blank" id="203">
          <mxCell style="whiteSpace=wrap;html=1;fillColor=#FFCCCC;" parent="1" vertex="1">
            <mxGeometry x="652.5" y="868" width="122.5" height="30" as="geometry" />
          </mxCell>
        </UserObject>
        <UserObject label="&lt;b&gt;दे&amp;nbsp;&lt;/b&gt;Tai Tham&lt;span style=&quot;font-weight: 700;&quot;&gt;&amp;nbsp;▸&lt;/span&gt;" link="https://en.wikipedia.org/wiki/Tai_Tham_script" linkTarget="_blank" id="204">
          <mxCell style="whiteSpace=wrap;html=1;fillColor=#FFCCCC;" parent="1" vertex="1">
            <mxGeometry x="390.4" y="810" width="86" height="30" as="geometry" />
          </mxCell>
        </UserObject>
        <mxCell id="205" value="" style="endArrow=classic;html=1;" parent="1" source="EHmsX5NUKX4iTEuCxSPg-281" target="204" edge="1">
          <mxGeometry x="850" y="835" width="50" height="50" as="geometry">
            <mxPoint x="699.7125" y="793" as="sourcePoint" />
            <mxPoint x="492.4" y="763" as="targetPoint" />
          </mxGeometry>
        </mxCell>
        <UserObject label="&lt;b&gt;दे&lt;/b&gt;&lt;b style=&quot;font-size: 11px;&quot;&gt;&amp;nbsp;&lt;/b&gt;Lepcha&amp;nbsp;&lt;b&gt;▸&lt;/b&gt;" link="https://en.wikipedia.org/wiki/Lepcha_script" linkTarget="_blank" id="206">
          <mxCell style="whiteSpace=wrap;html=1;fillColor=#CCFFFF;" parent="1" vertex="1">
            <mxGeometry x="128.4" y="688" width="78" height="30" as="geometry" />
          </mxCell>
        </UserObject>
        <mxCell id="207" value="" style="endArrow=classic;html=1;" parent="1" source="39" target="206" edge="1">
          <mxGeometry x="333" y="615" width="50" height="50" as="geometry">
            <mxPoint x="183.87499999999991" y="768" as="sourcePoint" />
            <mxPoint x="188.4250000000001" y="838" as="targetPoint" />
          </mxGeometry>
        </mxCell>
        <UserObject label="&lt;b&gt;दे&lt;/b&gt;&lt;b style=&quot;font-size: 11px;&quot;&gt;&amp;nbsp;&lt;/b&gt;Limbu&amp;nbsp;&lt;b&gt;▸&lt;/b&gt;" link="https://en.wikipedia.org/wiki/Limbu_script" linkTarget="_blank" id="208">
          <mxCell style="whiteSpace=wrap;html=1;fillColor=#CCFFFF;" parent="1" vertex="1">
            <mxGeometry x="133.27" y="748" width="67" height="30" as="geometry" />
          </mxCell>
        </UserObject>
        <mxCell id="209" value="" style="endArrow=classic;html=1;" parent="1" source="206" target="208" edge="1">
          <mxGeometry x="343" y="625" width="50" height="50" as="geometry">
            <mxPoint x="94.32307692307691" y="807" as="sourcePoint" />
            <mxPoint x="82.4769230769231" y="842" as="targetPoint" />
          </mxGeometry>
        </mxCell>
        <UserObject label="&lt;b&gt;Ω &lt;/b&gt;Fraser&lt;span style=&quot;font-weight: 700;&quot;&gt;&amp;nbsp;▸&lt;/span&gt;" link="https://en.wikipedia.org/wiki/Fraser_script" linkTarget="_blank" id="210">
          <mxCell style="whiteSpace=wrap;html=1;fillColor=#CCCCFF;" parent="1" vertex="1">
            <mxGeometry x="522.4" y="150" width="71" height="30" as="geometry" />
          </mxCell>
        </UserObject>
        <mxCell id="211" value="" style="endArrow=classic;html=1;" parent="1" source="88" target="210" edge="1">
          <mxGeometry x="175" y="395" width="50" height="50" as="geometry">
            <mxPoint x="407.4" y="255.75862068965512" as="sourcePoint" />
            <mxPoint x="326.384375" y="220" as="targetPoint" />
          </mxGeometry>
        </mxCell>
        <mxCell id="213" value="" style="endArrow=classic;html=1;dashed=1;" parent="1" source="23" target="212" edge="1">
          <mxGeometry x="293" y="575" width="50" height="50" as="geometry">
            <mxPoint x="404.4" y="464.75373134328356" as="sourcePoint" />
            <mxPoint x="340.4" y="486.24626865671644" as="targetPoint" />
          </mxGeometry>
        </mxCell>
        <UserObject label="&lt;b&gt;Ω&amp;nbsp;&lt;/b&gt;N&#39;ko&amp;nbsp;&lt;b&gt;◂&lt;/b&gt;" link="https://en.wikipedia.org/wiki/N%27Ko_script" linkTarget="_blank" id="215">
          <mxCell style="whiteSpace=wrap;html=1;fillColor=#E6E6E6;" parent="1" vertex="1">
            <mxGeometry x="740.9" y="988" width="60.5" height="30" as="geometry" />
          </mxCell>
        </UserObject>
        <UserObject label="&lt;b&gt;दे&amp;nbsp;&lt;/b&gt;Pollard&lt;span style=&quot;font-weight: 700;&quot;&gt;&amp;nbsp;▸&lt;/span&gt;" link="https://en.wikipedia.org/wiki/Pollard_script" linkTarget="_blank" id="219">
          <mxCell style="whiteSpace=wrap;html=1;fillColor=#CCCCFF;gradientColor=#CCFFFF;gradientDirection=west;" parent="1" vertex="1">
            <mxGeometry x="410" y="150" width="72" height="30" as="geometry" />
          </mxCell>
        </UserObject>
        <mxCell id="220" value="" style="endArrow=classic;html=1;" parent="1" source="88" target="219" edge="1">
          <mxGeometry x="195" y="415" width="50" height="50" as="geometry">
            <mxPoint x="638.4" y="171.3145539906103" as="sourcePoint" />
            <mxPoint x="682.4" y="172.96713615023475" as="targetPoint" />
          </mxGeometry>
        </mxCell>
        <UserObject label="Made by&amp;nbsp;&lt;div&gt;DPenner1&lt;/div&gt;" link="https://github.com/DPenner1" linkTarget="_blank" id="223">
          <mxCell style="text;html=1;strokeColor=none;fillColor=none;align=left;verticalAlign=middle;whiteSpace=wrap;overflow=hidden;fontSize=14;fontStyle=2" parent="1" vertex="1">
            <mxGeometry x="734.65" y="1040.5" width="65.35" height="39.5" as="geometry" />
          </mxCell>
        </UserObject>
        <UserObject label="&lt;font style=&quot;font-weight: 700; font-size: 11px;&quot;&gt;گ&lt;/font&gt;&lt;span style=&quot;font-weight: 700;&quot;&gt;&amp;nbsp;&lt;/span&gt;Samaritan&amp;nbsp;&lt;b&gt;◂&lt;/b&gt;" link="https://en.wikipedia.org/wiki/Samaritan_script" linkTarget="_blank" id="224">
          <mxCell style="whiteSpace=wrap;html=1;dashed=1;fillColor=#FFE599;dashPattern=8 8;" parent="1" vertex="1">
            <mxGeometry x="441.4" y="270" width="90" height="30" as="geometry" />
          </mxCell>
        </UserObject>
        <mxCell id="225" value="" style="endArrow=classic;html=1;" parent="1" source="18" target="224" edge="1">
          <mxGeometry x="155" y="375" width="50" height="50" as="geometry">
            <mxPoint x="344.4" y="367.3372093023256" as="sourcePoint" />
            <mxPoint x="842.4" y="430.1081081081081" as="targetPoint" />
          </mxGeometry>
        </mxCell>
        <UserObject label="&lt;b&gt;दे&lt;/b&gt;&lt;b style=&quot;font-size: 11px;&quot;&gt;&amp;nbsp;&lt;/b&gt;Sharada&amp;nbsp;&lt;b&gt;▸&lt;/b&gt;" link="https://en.wikipedia.org/wiki/Sharada_script" id="226">
          <mxCell style="whiteSpace=wrap;html=1;dashed=1;fillColor=#CCFFFF;dashPattern=8 8;" parent="1" vertex="1">
            <mxGeometry x="145.38000000000002" y="568" width="80.25" height="30" as="geometry" />
          </mxCell>
        </UserObject>
        <mxCell id="227" value="" style="endArrow=classic;html=1;" parent="1" source="30" target="226" edge="1">
          <mxGeometry x="333" y="615" width="50" height="50" as="geometry">
            <mxPoint x="167.4" y="661.7173913043478" as="sourcePoint" />
            <mxPoint x="118.4" y="653.195652173913" as="targetPoint" />
          </mxGeometry>
        </mxCell>
        <UserObject label="&lt;b&gt;दे&amp;nbsp;&lt;/b&gt;Tai Le&lt;span style=&quot;font-weight: 700;&quot;&gt;&amp;nbsp;▸&lt;/span&gt;" link="https://en.wikipedia.org/wiki/Tai_Le_script" linkTarget="_blank" id="233">
          <mxCell style="whiteSpace=wrap;html=1;fillColor=#FFCCCC;" parent="1" vertex="1">
            <mxGeometry x="263.15" y="868" width="65" height="30" as="geometry" />
          </mxCell>
        </UserObject>
        <mxCell id="234" value="" style="endArrow=classic;html=1;" parent="1" source="59" target="233" edge="1">
          <mxGeometry x="313" y="595" width="50" height="50" as="geometry">
            <mxPoint x="622.1368421052631" y="553" as="sourcePoint" />
            <mxPoint x="681.2970588235293" y="703" as="targetPoint" />
          </mxGeometry>
        </mxCell>
        <mxCell id="95" value="Historical&lt;br&gt;" style="whiteSpace=wrap;html=1;dashed=1;dashPattern=1 4;fillColor=none;" parent="1" vertex="1">
          <mxGeometry x="677" y="53" width="66" height="30" as="geometry" />
        </mxCell>
        <mxCell id="96" value="Specialized use" style="whiteSpace=wrap;html=1;dashed=1;dashPattern=8 8;fillColor=none;" parent="1" vertex="1">
          <mxGeometry x="572.25" y="53" width="97.5" height="30" as="geometry" />
        </mxCell>
        <UserObject label="Semitic" link="https://en.wikipedia.org/wiki/Proto-Sinaitic_script" linkTarget="_blank" id="245">
          <mxCell style="whiteSpace=wrap;html=1;fontStyle=0;fillColor=#FFE599;" parent="1" vertex="1">
            <mxGeometry x="93.4" y="53" width="56.6" height="30" as="geometry" />
          </mxCell>
        </UserObject>
        <UserObject label="Greek-based&lt;br&gt;" link="https://en.wikipedia.org/wiki/Greek_alphabet" linkTarget="_blank" id="246">
          <mxCell style="whiteSpace=wrap;html=1;fontStyle=0;fillColor=#CCCCFF;" parent="1" vertex="1">
            <mxGeometry x="157.6" y="53" width="84.65" height="30" as="geometry" />
          </mxCell>
        </UserObject>
        <UserObject label="Southern Brahmi&lt;br&gt;" link="https://en.wikipedia.org/wiki/Brahmi_script" linkTarget="_blank" id="247">
          <mxCell style="whiteSpace=wrap;html=1;fillColor=#FFCCCC;" parent="1" vertex="1">
            <mxGeometry x="248.15" y="53" width="108" height="30" as="geometry" />
          </mxCell>
        </UserObject>
        <UserObject label="Northern Brahmi&lt;br&gt;" link="https://en.wikipedia.org/wiki/Brahmi_script" linkTarget="_blank" id="248">
          <mxCell style="whiteSpace=wrap;html=1;fillColor=#CCFFFF;" parent="1" vertex="1">
            <mxGeometry x="365" y="53" width="108" height="30" as="geometry" />
          </mxCell>
        </UserObject>
        <UserObject label="Chinese" link="https://en.wikipedia.org/wiki/Chinese_family_of_scripts" linkTarget="_blank" id="249">
          <mxCell style="whiteSpace=wrap;html=1;fillColor=#FFCCFF;" parent="1" vertex="1">
            <mxGeometry x="20.05000000000001" y="53" width="64.6" height="30" as="geometry" />
          </mxCell>
        </UserObject>
        <mxCell id="251" value="Independent" style="whiteSpace=wrap;html=1;fillColor=#E6E6E6;" parent="1" vertex="1">
          <mxGeometry x="479.75" y="53" width="85" height="30" as="geometry" />
        </mxCell>
        <mxCell id="256" value="" style="endArrow=none;html=1;strokeWidth=3;" parent="1" edge="1">
          <mxGeometry width="50" height="50" relative="1" as="geometry">
            <mxPoint x="20" y="130" as="sourcePoint" />
            <mxPoint x="810" y="130" as="targetPoint" />
          </mxGeometry>
        </mxCell>
        <mxCell id="EHmsX5NUKX4iTEuCxSPg-262" value="" style="endArrow=classic;html=1;" parent="1" source="76" target="174" edge="1">
          <mxGeometry x="672" y="482" width="50" height="50" as="geometry">
            <mxPoint x="670.4" y="439" as="sourcePoint" />
            <mxPoint x="663.4" y="487" as="targetPoint" />
          </mxGeometry>
        </mxCell>
        <mxCell id="EHmsX5NUKX4iTEuCxSPg-266" value="" style="endArrow=classic;html=1;" parent="1" source="53" target="203" edge="1">
          <mxGeometry x="850" y="835" width="50" height="50" as="geometry">
            <mxPoint x="715.4" y="893" as="sourcePoint" />
            <mxPoint x="714.4" y="950" as="targetPoint" />
          </mxGeometry>
        </mxCell>
        <UserObject label="&lt;b&gt;दे&lt;/b&gt;&lt;b style=&quot;font-size: 11px;&quot;&gt;&amp;nbsp;&lt;/b&gt;&lt;i&gt;Gaudi&lt;/i&gt;&amp;nbsp;&lt;b&gt;▸&lt;/b&gt;" link="https://en.wikipedia.org/wiki/Gaudi_script" linkTarget="_blank" id="EHmsX5NUKX4iTEuCxSPg-271">
          <mxCell style="whiteSpace=wrap;html=1;dashed=1;dashPattern=1 4;fillColor=#CCFFFF;" parent="1" vertex="1">
            <mxGeometry x="125.00000000000004" y="390" width="65" height="30" as="geometry" />
          </mxCell>
        </UserObject>
        <UserObject label="&lt;b&gt;दे&amp;nbsp;&lt;/b&gt;Odia&amp;nbsp;&lt;b&gt;▸&lt;/b&gt;" link="https://en.wikipedia.org/wiki/Odia_script" linkTarget="_blank" id="EHmsX5NUKX4iTEuCxSPg-272">
          <mxCell style="whiteSpace=wrap;html=1;fontStyle=1;fillColor=#CCFFFF;" parent="1" vertex="1">
            <mxGeometry x="235.87999999999994" y="450" width="62" height="30" as="geometry" />
          </mxCell>
        </UserObject>
        <mxCell id="EHmsX5NUKX4iTEuCxSPg-273" value="" style="endArrow=classic;html=1;" parent="1" source="33" target="EHmsX5NUKX4iTEuCxSPg-271" edge="1">
          <mxGeometry x="323" y="605" width="50" height="50" as="geometry">
            <mxPoint x="175.4" y="840" as="sourcePoint" />
            <mxPoint x="184.4" y="885" as="targetPoint" />
          </mxGeometry>
        </mxCell>
        <mxCell id="EHmsX5NUKX4iTEuCxSPg-274" value="" style="endArrow=classic;html=1;" parent="1" source="EHmsX5NUKX4iTEuCxSPg-271" target="EHmsX5NUKX4iTEuCxSPg-272" edge="1">
          <mxGeometry x="323" y="605" width="50" height="50" as="geometry">
            <mxPoint x="178.4" y="768" as="sourcePoint" />
            <mxPoint x="174.4" y="810" as="targetPoint" />
          </mxGeometry>
        </mxCell>
        <mxCell id="EHmsX5NUKX4iTEuCxSPg-275" value="" style="endArrow=classic;html=1;" parent="1" source="28" target="64" edge="1">
          <mxGeometry x="584" y="637" width="50" height="50" as="geometry">
            <mxPoint x="764.4" y="563" as="sourcePoint" />
            <mxPoint x="733.4" y="598" as="targetPoint" />
          </mxGeometry>
        </mxCell>
        <UserObject label="&lt;b&gt;दे&amp;nbsp;&lt;/b&gt;&lt;i&gt;Sukhothai&lt;/i&gt;&lt;span style=&quot;font-weight: 700;&quot;&gt;&amp;nbsp;▸&lt;/span&gt;" link="https://en.wikipedia.org/wiki/Sukhothai_script" linkTarget="_blank" id="EHmsX5NUKX4iTEuCxSPg-277">
          <mxCell style="whiteSpace=wrap;html=1;fontStyle=0;fillColor=#FFCCCC;dashed=1;dashPattern=1 4;" parent="1" vertex="1">
            <mxGeometry x="490.37" y="810" width="89" height="30" as="geometry" />
          </mxCell>
        </UserObject>
        <mxCell id="EHmsX5NUKX4iTEuCxSPg-278" value="" style="endArrow=classic;html=1;" parent="1" source="EHmsX5NUKX4iTEuCxSPg-277" target="52" edge="1">
          <mxGeometry x="850" y="835" width="50" height="50" as="geometry">
            <mxPoint x="406.4" y="782" as="sourcePoint" />
            <mxPoint x="409.4" y="808" as="targetPoint" />
          </mxGeometry>
        </mxCell>
        <mxCell id="EHmsX5NUKX4iTEuCxSPg-279" value="" style="endArrow=classic;html=1;" parent="1" source="49" target="EHmsX5NUKX4iTEuCxSPg-277" edge="1">
          <mxGeometry x="850" y="835" width="50" height="50" as="geometry">
            <mxPoint x="416.4" y="782" as="sourcePoint" />
            <mxPoint x="419.4" y="808" as="targetPoint" />
          </mxGeometry>
        </mxCell>
        <mxCell id="EHmsX5NUKX4iTEuCxSPg-280" value="" style="endArrow=classic;html=1;dashed=1;" parent="1" source="64" target="EHmsX5NUKX4iTEuCxSPg-281" edge="1">
          <mxGeometry x="636" y="705" width="50" height="50" as="geometry">
            <mxPoint x="529.4" y="650" as="sourcePoint" />
            <mxPoint x="602.4" y="760" as="targetPoint" />
          </mxGeometry>
        </mxCell>
        <UserObject label="&lt;b&gt;दे&amp;nbsp;&lt;/b&gt;&lt;i&gt;Old Mon&lt;/i&gt;&lt;span style=&quot;font-weight: 700;&quot;&gt;&amp;nbsp;▸&lt;/span&gt;" link="https://en.wikipedia.org/wiki/Mon%E2%80%93Burmese_script" linkTarget="_blank" id="EHmsX5NUKX4iTEuCxSPg-281">
          <mxCell style="whiteSpace=wrap;html=1;fontStyle=0;fillColor=#FFCCCC;dashed=1;dashPattern=1 4;" parent="1" vertex="1">
            <mxGeometry x="339.5" y="748" width="78" height="30" as="geometry" />
          </mxCell>
        </UserObject>
        <mxCell id="EHmsX5NUKX4iTEuCxSPg-282" value="" style="endArrow=classic;html=1;" parent="1" source="EHmsX5NUKX4iTEuCxSPg-281" target="59" edge="1">
          <mxGeometry x="850" y="835" width="50" height="50" as="geometry">
            <mxPoint x="485.4" y="720" as="sourcePoint" />
            <mxPoint x="514.4" y="748" as="targetPoint" />
          </mxGeometry>
        </mxCell>
        <UserObject label="&lt;b&gt;दे&amp;nbsp;&lt;/b&gt;New Tai Lue&lt;span style=&quot;font-weight: 700;&quot;&gt;&amp;nbsp;▸&lt;/span&gt;" link="https://en.wikipedia.org/wiki/New_Tai_Lue_alphabet" linkTarget="_blank" id="EHmsX5NUKX4iTEuCxSPg-283">
          <mxCell style="whiteSpace=wrap;html=1;fillColor=#FFCCCC;" parent="1" vertex="1">
            <mxGeometry x="369.25" y="868" width="99.5" height="30" as="geometry" />
          </mxCell>
        </UserObject>
        <mxCell id="EHmsX5NUKX4iTEuCxSPg-284" value="" style="endArrow=classic;html=1;" parent="1" source="204" target="EHmsX5NUKX4iTEuCxSPg-283" edge="1">
          <mxGeometry x="850" y="835" width="50" height="50" as="geometry">
            <mxPoint x="481.4" y="710" as="sourcePoint" />
            <mxPoint x="511.4" y="747" as="targetPoint" />
          </mxGeometry>
        </mxCell>
        <UserObject label="&lt;b&gt;दे&amp;nbsp;&lt;/b&gt;Baybayin&lt;span style=&quot;font-weight: 700;&quot;&gt;&amp;nbsp;▸&lt;/span&gt;" link="https://en.wikipedia.org/wiki/Baybayin" linkTarget="_blank" id="EHmsX5NUKX4iTEuCxSPg-285">
          <mxCell style="whiteSpace=wrap;html=1;dashed=1;fillColor=#FFCCCC;dashPattern=8 8;" parent="1" vertex="1">
            <mxGeometry x="586.15" y="568" width="85" height="30" as="geometry" />
          </mxCell>
        </UserObject>
        <mxCell id="EHmsX5NUKX4iTEuCxSPg-286" value="" style="endArrow=classic;html=1;" parent="1" source="EHmsX5NUKX4iTEuCxSPg-285" target="190" edge="1">
          <mxGeometry x="671" y="750" width="50" height="50" as="geometry">
            <mxPoint x="659.4" y="697" as="sourcePoint" />
            <mxPoint x="659.4" y="727" as="targetPoint" />
          </mxGeometry>
        </mxCell>
        <mxCell id="EHmsX5NUKX4iTEuCxSPg-287" value="" style="endArrow=classic;html=1;dashed=1;" parent="1" source="50" target="177" edge="1">
          <mxGeometry x="303" y="585" width="50" height="50" as="geometry">
            <mxPoint x="651.4" y="645" as="sourcePoint" />
            <mxPoint x="670.4" y="548" as="targetPoint" />
          </mxGeometry>
        </mxCell>
        <UserObject label="&lt;b&gt;Ω&lt;/b&gt;&lt;span style=&quot;font-weight: 700;&quot;&gt;&amp;nbsp;&lt;/span&gt;Neo-Tifinagh&lt;span style=&quot;font-weight: 700;&quot;&gt;&amp;nbsp;▸&lt;/span&gt;" link="https://en.wikipedia.org/wiki/Tifinagh" linkTarget="_blank" id="EHmsX5NUKX4iTEuCxSPg-292">
          <mxCell style="whiteSpace=wrap;html=1;dashed=1;fillColor=#FFE599;dashPattern=8 8;" parent="1" vertex="1">
            <mxGeometry x="225.63" y="390" width="106" height="30" as="geometry" />
          </mxCell>
        </UserObject>
        <mxCell id="EHmsX5NUKX4iTEuCxSPg-294" value="" style="endArrow=classic;html=1;" parent="1" source="170" target="EHmsX5NUKX4iTEuCxSPg-292" edge="1">
          <mxGeometry x="155" y="375" width="50" height="50" as="geometry">
            <mxPoint x="313.4" y="355" as="sourcePoint" />
            <mxPoint x="359.4" y="334" as="targetPoint" />
          </mxGeometry>
        </mxCell>
        <mxCell id="EHmsX5NUKX4iTEuCxSPg-297" value="" style="endArrow=classic;html=1;dashed=1;" parent="1" source="18" target="170" edge="1">
          <mxGeometry x="303" y="585" width="50" height="50" as="geometry">
            <mxPoint x="364.4" y="274" as="sourcePoint" />
            <mxPoint x="483.4" y="300" as="targetPoint" />
          </mxGeometry>
        </mxCell>
        <mxCell id="EHmsX5NUKX4iTEuCxSPg-298" value="" style="endArrow=classic;html=1;dashed=1;" parent="1" source="23" target="86" edge="1">
          <mxGeometry x="303" y="585" width="50" height="50" as="geometry">
            <mxPoint x="364.4" y="283" as="sourcePoint" />
            <mxPoint x="483.4" y="307" as="targetPoint" />
          </mxGeometry>
        </mxCell>
        <UserObject label="&lt;b&gt;Ω&lt;/b&gt;&lt;span style=&quot;font-size: 11px;&quot;&gt;&amp;nbsp;&lt;/span&gt;&lt;span style=&quot;font-weight: normal;&quot;&gt;Braille&lt;/span&gt; ▸" link="https://en.wikipedia.org/wiki/Braille" linkTarget="_blank" id="EHmsX5NUKX4iTEuCxSPg-300">
          <mxCell style="whiteSpace=wrap;html=1;fontStyle=1;fillColor=#E6E6E6;" parent="1" vertex="1">
            <mxGeometry x="469.4" y="928" width="76" height="30" as="geometry" />
          </mxCell>
        </UserObject>
        <mxCell id="EHmsX5NUKX4iTEuCxSPg-305" value="" style="endArrow=classic;html=1;" parent="1" source="EHmsX5NUKX4iTEuCxSPg-285" target="199" edge="1">
          <mxGeometry x="671" y="750" width="50" height="50" as="geometry">
            <mxPoint x="742.4" y="795" as="sourcePoint" />
            <mxPoint x="660.4" y="883" as="targetPoint" />
          </mxGeometry>
        </mxCell>
        <mxCell id="EHmsX5NUKX4iTEuCxSPg-310" value="" style="endArrow=classic;html=1;" parent="1" source="33" target="43" edge="1">
          <mxGeometry x="313" y="595" width="50" height="50" as="geometry">
            <mxPoint x="155.4" y="690" as="sourcePoint" />
            <mxPoint x="92.4" y="738" as="targetPoint" />
          </mxGeometry>
        </mxCell>
        <mxCell id="EHmsX5NUKX4iTEuCxSPg-311" value="" style="endArrow=classic;html=1;dashed=1;" parent="1" source="197" target="EHmsX5NUKX4iTEuCxSPg-285" edge="1">
          <mxGeometry x="671" y="750" width="50" height="50" as="geometry">
            <mxPoint x="649.4" y="639" as="sourcePoint" />
            <mxPoint x="632.4" y="528" as="targetPoint" />
          </mxGeometry>
        </mxCell>
        <UserObject label="&lt;b&gt;दे&amp;nbsp;&lt;/b&gt;Balinese&lt;span style=&quot;font-weight: 700;&quot;&gt;&amp;nbsp;▸&lt;/span&gt;" link="https://en.wikipedia.org/wiki/Balinese_script" linkTarget="_blank" id="EHmsX5NUKX4iTEuCxSPg-313">
          <mxCell style="whiteSpace=wrap;html=1;dashed=1;fillColor=#FFCCCC;dashPattern=8 8;" parent="1" vertex="1">
            <mxGeometry x="721.4" y="628" width="80" height="30" as="geometry" />
          </mxCell>
        </UserObject>
        <mxCell id="EHmsX5NUKX4iTEuCxSPg-314" value="" style="endArrow=classic;html=1;" parent="1" source="151" target="EHmsX5NUKX4iTEuCxSPg-313" edge="1">
          <mxGeometry x="620" y="850" width="50" height="50" as="geometry">
            <mxPoint x="724.4" y="615" as="sourcePoint" />
            <mxPoint x="739.4" y="549" as="targetPoint" />
          </mxGeometry>
        </mxCell>
        <UserObject label="&lt;b&gt;Ω&lt;/b&gt;&lt;b&gt;&amp;nbsp;&lt;/b&gt;&lt;span style=&quot;font-weight: normal;&quot;&gt;Kayah Li&lt;/span&gt; ▸" link="https://en.wikipedia.org/wiki/Kayah_Li_alphabet" linkTarget="_blank" id="EHmsX5NUKX4iTEuCxSPg-315">
          <mxCell style="whiteSpace=wrap;html=1;fontStyle=1;fillColor=#FFCCCC;gradientColor=#E6E6E6;gradientDirection=east;" parent="1" vertex="1">
            <mxGeometry x="345.03" y="928" width="84" height="30" as="geometry" />
          </mxCell>
        </UserObject>
        <mxCell id="EHmsX5NUKX4iTEuCxSPg-316" value="" style="endArrow=classic;html=1;dashed=1;" parent="1" source="59" target="EHmsX5NUKX4iTEuCxSPg-315" edge="1">
          <mxGeometry x="636" y="705" width="50" height="50" as="geometry">
            <mxPoint x="530.4" y="667" as="sourcePoint" />
            <mxPoint x="480.4" y="699" as="targetPoint" />
          </mxGeometry>
        </mxCell>
        <mxCell id="EHmsX5NUKX4iTEuCxSPg-317" value="" style="endArrow=classic;html=1;dashed=1;" parent="1" source="52" target="EHmsX5NUKX4iTEuCxSPg-315" edge="1">
          <mxGeometry x="636" y="705" width="50" height="50" as="geometry">
            <mxPoint x="540.4" y="677" as="sourcePoint" />
            <mxPoint x="490.4" y="709" as="targetPoint" />
          </mxGeometry>
        </mxCell>
        <UserObject label="&lt;b&gt;Ω&lt;/b&gt;&amp;nbsp;Ol Chiki&amp;nbsp;&lt;b&gt;▸&lt;/b&gt;" link="https://en.wikipedia.org/wiki/Ol_Chiki_script" linkTarget="_blank" id="EHmsX5NUKX4iTEuCxSPg-319">
          <mxCell style="whiteSpace=wrap;html=1;fillColor=#E6E6E6;" parent="1" vertex="1">
            <mxGeometry x="22" y="810" width="80" height="30" as="geometry" />
          </mxCell>
        </UserObject>
        <UserObject label="&lt;b&gt;दे&lt;/b&gt;&lt;b style=&quot;font-size: 11px;&quot;&gt;&amp;nbsp;&lt;/b&gt;Rejang&amp;nbsp;&lt;span style=&quot;font-weight: 700;&quot;&gt;▸&lt;/span&gt;" link="https://en.wikipedia.org/wiki/Rejang_alphabet" linkTarget="_blank" id="EHmsX5NUKX4iTEuCxSPg-320">
          <mxCell style="whiteSpace=wrap;html=1;fillColor=#FFCCCC;" parent="1" vertex="1">
            <mxGeometry x="728.78" y="688" width="72.62" height="30" as="geometry" />
          </mxCell>
        </UserObject>
        <mxCell id="EHmsX5NUKX4iTEuCxSPg-321" value="" style="endArrow=classic;html=1;" parent="1" source="151" target="EHmsX5NUKX4iTEuCxSPg-320" edge="1">
          <mxGeometry x="620" y="850" width="50" height="50" as="geometry">
            <mxPoint x="691.78" y="649.5" as="sourcePoint" />
            <mxPoint x="736.78" y="750.5" as="targetPoint" />
          </mxGeometry>
        </mxCell>
        <UserObject label="&lt;b&gt;दे&lt;/b&gt;&lt;b style=&quot;font-size: 11px;&quot;&gt;&amp;nbsp;&lt;/b&gt;&lt;span style=&quot;font-weight: normal;&quot;&gt;Meitei&lt;/span&gt;&lt;span style=&quot;font-weight: 400;&quot;&gt;&amp;nbsp;&lt;/span&gt;&lt;b&gt;▸&lt;/b&gt;" link="https://en.wikipedia.org/wiki/Meitei_script" linkTarget="_blank" id="EHmsX5NUKX4iTEuCxSPg-322">
          <mxCell style="whiteSpace=wrap;html=1;fontStyle=1;fillColor=#CCFFFF;" parent="1" vertex="1">
            <mxGeometry x="21.9" y="688" width="68.1" height="30" as="geometry" />
          </mxCell>
        </UserObject>
        <mxCell id="EHmsX5NUKX4iTEuCxSPg-323" value="" style="endArrow=classic;html=1;" parent="1" source="39" target="EHmsX5NUKX4iTEuCxSPg-322" edge="1">
          <mxGeometry x="313" y="595" width="50" height="50" as="geometry">
            <mxPoint x="170.4" y="598" as="sourcePoint" />
            <mxPoint x="84.4" y="678" as="targetPoint" />
          </mxGeometry>
        </mxCell>
        <UserObject label="&lt;b&gt;दे&amp;nbsp;&lt;/b&gt;Chakma&lt;span style=&quot;font-weight: 700;&quot;&gt;&amp;nbsp;▸&lt;/span&gt;" link="https://en.wikipedia.org/wiki/Chakma_script" linkTarget="_blank" id="EHmsX5NUKX4iTEuCxSPg-324">
          <mxCell style="whiteSpace=wrap;html=1;fillColor=#FFCCCC;" parent="1" vertex="1">
            <mxGeometry x="151" y="868" width="77" height="30" as="geometry" />
          </mxCell>
        </UserObject>
        <mxCell id="EHmsX5NUKX4iTEuCxSPg-325" value="" style="endArrow=classic;html=1;" parent="1" source="59" target="EHmsX5NUKX4iTEuCxSPg-324" edge="1">
          <mxGeometry x="313" y="595" width="50" height="50" as="geometry">
            <mxPoint x="338.9" y="774" as="sourcePoint" />
            <mxPoint x="313.9" y="773" as="targetPoint" />
          </mxGeometry>
        </mxCell>
        <UserObject label="&lt;b&gt;Ω&lt;/b&gt;&amp;nbsp;Sorang Sompeng&amp;nbsp;&lt;b&gt;▸&lt;/b&gt;" link="https://en.wikipedia.org/wiki/Sorang_Sompeng_script" linkTarget="_blank" id="EHmsX5NUKX4iTEuCxSPg-326">
          <mxCell style="whiteSpace=wrap;html=1;fillColor=#E6E6E6;" parent="1" vertex="1">
            <mxGeometry x="115" y="810" width="133.15" height="30" as="geometry" />
          </mxCell>
        </UserObject>
        <mxCell id="EHmsX5NUKX4iTEuCxSPg-328" value="" style="endArrow=classic;html=1;" parent="1" source="226" target="146" edge="1">
          <mxGeometry x="333" y="615" width="50" height="50" as="geometry">
            <mxPoint x="155.4" y="607" as="sourcePoint" />
            <mxPoint x="173.0237500000003" y="538" as="targetPoint" />
          </mxGeometry>
        </mxCell>
        <UserObject label="&lt;b&gt;Ω&lt;/b&gt;&amp;nbsp;Mru&amp;nbsp;&lt;b&gt;▸&lt;/b&gt;" link="https://en.wikipedia.org/wiki/Mru_script" linkTarget="_blank" id="EHmsX5NUKX4iTEuCxSPg-329">
          <mxCell style="whiteSpace=wrap;html=1;fillColor=#E6E6E6;" parent="1" vertex="1">
            <mxGeometry x="133.27" y="508" width="61" height="30" as="geometry" />
          </mxCell>
        </UserObject>
        <UserObject label="&lt;b&gt;Ω&lt;/b&gt;&amp;nbsp;Warang Citi&amp;nbsp;&lt;b&gt;▸&lt;/b&gt;" link="https://en.wikipedia.org/wiki/Warang_Citi" linkTarget="_blank" id="EHmsX5NUKX4iTEuCxSPg-330">
          <mxCell style="whiteSpace=wrap;html=1;fillColor=#E6E6E6;" parent="1" vertex="1">
            <mxGeometry x="21.9" y="748" width="96" height="30" as="geometry" />
          </mxCell>
        </UserObject>
        <UserObject label="&lt;b&gt;Ω&amp;nbsp;&lt;/b&gt;Adlam&amp;nbsp;&lt;b&gt;◂&lt;/b&gt;" link="https://en.wikipedia.org/wiki/Adlam_script" linkTarget="_blank" id="EHmsX5NUKX4iTEuCxSPg-331">
          <mxCell style="whiteSpace=wrap;html=1;fillColor=#E6E6E6;" parent="1" vertex="1">
            <mxGeometry x="731.4" y="928" width="70" height="30" as="geometry" />
          </mxCell>
        </UserObject>
        <UserObject label="&lt;b&gt;Ω &lt;/b&gt;Osage&lt;span style=&quot;font-weight: 700;&quot;&gt;&amp;nbsp;▸&lt;/span&gt;" link="https://en.wikipedia.org/wiki/Osage_script" linkTarget="_blank" id="EHmsX5NUKX4iTEuCxSPg-332">
          <mxCell style="whiteSpace=wrap;html=1;fillColor=#CCCCFF;" parent="1" vertex="1">
            <mxGeometry x="731.83" y="210" width="71" height="30" as="geometry" />
          </mxCell>
        </UserObject>
        <mxCell id="EHmsX5NUKX4iTEuCxSPg-333" value="" style="endArrow=classic;html=1;" parent="1" source="88" target="EHmsX5NUKX4iTEuCxSPg-332" edge="1">
          <mxGeometry x="175" y="395" width="50" height="50" as="geometry">
            <mxPoint x="662.4" y="256" as="sourcePoint" />
            <mxPoint x="675.4" y="220" as="targetPoint" />
          </mxGeometry>
        </mxCell>
        <UserObject label="&lt;b&gt;Ω&amp;nbsp;&lt;/b&gt;Hanifi Rohingya&amp;nbsp;&lt;b&gt;◂&lt;/b&gt;" link="https://en.wikipedia.org/wiki/Hanifi_Rohingya_script" linkTarget="_blank" id="EHmsX5NUKX4iTEuCxSPg-334">
          <mxCell style="whiteSpace=wrap;html=1;fillColor=#FFE599;" parent="1" vertex="1">
            <mxGeometry x="679.09" y="450" width="124" height="30" as="geometry" />
          </mxCell>
        </UserObject>
        <mxCell id="EHmsX5NUKX4iTEuCxSPg-335" value="" style="endArrow=classic;html=1;" parent="1" source="76" target="EHmsX5NUKX4iTEuCxSPg-334" edge="1">
          <mxGeometry x="662" y="472" width="50" height="50" as="geometry">
            <mxPoint x="417.4" y="444" as="sourcePoint" />
            <mxPoint x="502.4" y="444" as="targetPoint" />
          </mxGeometry>
        </mxCell>
        <UserObject label="&lt;b&gt;Ω&lt;/b&gt;&amp;nbsp;Mundari Bani&amp;nbsp;&lt;b&gt;▸&lt;/b&gt;" link="https://en.wikipedia.org/wiki/Mundari_Bani" linkTarget="_blank" id="EHmsX5NUKX4iTEuCxSPg-336">
          <mxCell style="whiteSpace=wrap;html=1;fillColor=#E6E6E6;" parent="1" vertex="1">
            <mxGeometry x="21.400000000000055" y="868" width="107" height="30" as="geometry" />
          </mxCell>
        </UserObject>
        <mxCell id="EHmsX5NUKX4iTEuCxSPg-337" value="" style="endArrow=classic;html=1;" parent="1" source="142" target="219" edge="1">
          <mxGeometry x="352" y="750" width="50" height="50" as="geometry">
            <mxPoint x="190.4" y="825" as="sourcePoint" />
            <mxPoint x="256.4" y="867" as="targetPoint" />
          </mxGeometry>
        </mxCell>
        <UserObject label="&lt;b&gt;दे&amp;nbsp;&lt;/b&gt;Javanese&lt;span style=&quot;font-weight: 700;&quot;&gt;&amp;nbsp;▸&lt;/span&gt;" link="https://en.wikipedia.org/wiki/Javanese_script" linkTarget="_blank" id="EHmsX5NUKX4iTEuCxSPg-338">
          <mxCell style="whiteSpace=wrap;html=1;dashed=1;fillColor=#FFCCCC;dashPattern=8 8;" parent="1" vertex="1">
            <mxGeometry x="717.4" y="748" width="84" height="30" as="geometry" />
          </mxCell>
        </UserObject>
        <mxCell id="EHmsX5NUKX4iTEuCxSPg-339" value="" style="endArrow=classic;html=1;" parent="1" source="151" target="EHmsX5NUKX4iTEuCxSPg-338" edge="1">
          <mxGeometry x="620" y="850" width="50" height="50" as="geometry">
            <mxPoint x="693.4" y="637" as="sourcePoint" />
            <mxPoint x="733.4" y="623" as="targetPoint" />
          </mxGeometry>
        </mxCell>
        <UserObject label="&lt;b&gt;Ω&lt;/b&gt;&lt;span style=&quot;font-size: 11px;&quot;&gt;&amp;nbsp;&lt;/span&gt;&lt;span style=&quot;font-weight: normal;&quot;&gt;SignWriting&lt;/span&gt;&amp;nbsp;▼▸" link="https://en.wikipedia.org/wiki/SignWriting" linkTarget="_blank" id="8tH24z78lBlKkCgDe4kR-259">
          <mxCell style="whiteSpace=wrap;html=1;fontStyle=1;fillColor=#E6E6E6;" parent="1" vertex="1">
            <mxGeometry x="569.9" y="928" width="112" height="30" as="geometry" />
          </mxCell>
        </UserObject>
        <mxCell id="8tH24z78lBlKkCgDe4kR-261" value="" style="endArrow=classic;html=1;" parent="1" source="28" target="161" edge="1">
          <mxGeometry x="671" y="750" width="50" height="50" as="geometry">
            <mxPoint x="351.4" y="590" as="sourcePoint" />
            <mxPoint x="311.4" y="601" as="targetPoint" />
          </mxGeometry>
        </mxCell>
        <UserObject label="&lt;b&gt;Ω&amp;nbsp;&lt;/b&gt;Mandaic&amp;nbsp;&lt;b&gt;◂&lt;/b&gt;" link="https://en.wikipedia.org/wiki/Mandaic_alphabet" linkTarget="_blank" id="212">
          <mxCell style="whiteSpace=wrap;html=1;fillColor=#FFE599;dashed=1;dashPattern=8 8;" parent="1" vertex="1">
            <mxGeometry x="318" y="450" width="84" height="30" as="geometry" />
          </mxCell>
        </UserObject>
        <mxCell id="99" value="Disputed" style="text;html=1;strokeColor=none;fillColor=none;align=center;verticalAlign=middle;whiteSpace=wrap;overflow=hidden;dashed=1;" parent="1" vertex="1">
          <mxGeometry x="740.84" y="58" width="70" height="20" as="geometry" />
        </mxCell>
        <mxCell id="103" value="" style="endArrow=classic;html=1;dashed=1;" parent="1" edge="1">
          <mxGeometry x="746" y="121" width="50" height="50" as="geometry">
            <mxPoint x="751" y="78" as="sourcePoint" />
            <mxPoint x="810" y="78" as="targetPoint" />
          </mxGeometry>
        </mxCell>
        <UserObject label="Writing direction▲&lt;b&gt;▸&lt;/b&gt;&lt;b&gt;▼&lt;/b&gt;&lt;b&gt;◂&lt;/b&gt;" link="https://en.wikipedia.org/wiki/Writing_system#Directionality" id="8tH24z78lBlKkCgDe4kR-268">
          <mxCell style="whiteSpace=wrap;html=1;fillColor=none;" parent="1" vertex="1">
            <mxGeometry x="424.75" y="93" width="140" height="30" as="geometry" />
          </mxCell>
        </UserObject>
        <UserObject label="&lt;b&gt;Ω &lt;/b&gt;Alphabet" link="https://en.wikipedia.org/wiki/Alphabet" linkTarget="_blank" id="8tH24z78lBlKkCgDe4kR-270">
          <mxCell style="whiteSpace=wrap;html=1;fillColor=none;" parent="1" vertex="1">
            <mxGeometry x="20" y="93" width="73.4" height="30" as="geometry" />
          </mxCell>
        </UserObject>
        <UserObject label="Over 10 million users" link="https://en.wikipedia.org/wiki/List_of_writing_systems#List_of_writing_systems_by_adoption" linkTarget="_blank" id="8tH24z78lBlKkCgDe4kR-271">
          <mxCell style="whiteSpace=wrap;html=1;fontStyle=1;fillColor=none;" parent="1" vertex="1">
            <mxGeometry x="677" y="93" width="133" height="30" as="geometry" />
          </mxCell>
        </UserObject>
        <UserObject label="&lt;span style=&quot;font-style: italic; font-weight: 400;&quot;&gt;Not in Unicode&lt;/span&gt;" link="https://www.unicode.org/standard/supported.html" linkTarget="_blank" id="8tH24z78lBlKkCgDe4kR-272">
          <mxCell style="whiteSpace=wrap;html=1;fontStyle=1;fillColor=none;" parent="1" vertex="1">
            <mxGeometry x="573" y="93" width="97" height="30" as="geometry" />
          </mxCell>
        </UserObject>
        <UserObject label="&lt;b&gt;दे&lt;/b&gt;&lt;b&gt;&amp;nbsp;&lt;/b&gt;Abugida" link="https://en.wikipedia.org/wiki/Abugida" linkTarget="_blank" id="8tH24z78lBlKkCgDe4kR-273">
          <mxCell style="whiteSpace=wrap;html=1;fillColor=none;" parent="1" vertex="1">
            <mxGeometry x="100" y="93" width="69.25" height="30" as="geometry" />
          </mxCell>
        </UserObject>
        <UserObject label="&lt;span style=&quot;font-size: 11px; font-weight: 700;&quot;&gt;گ&lt;/span&gt;&lt;b&gt;&amp;nbsp;&lt;/b&gt;Abjad&lt;font size=&quot;1&quot;&gt;&amp;nbsp;&lt;/font&gt;" link="https://en.wikipedia.org/wiki/Abjad" linkTarget="_blank" id="8tH24z78lBlKkCgDe4kR-274">
          <mxCell style="whiteSpace=wrap;html=1;fillColor=none;" parent="1" vertex="1">
            <mxGeometry x="175.88" y="93" width="60" height="30" as="geometry" />
          </mxCell>
        </UserObject>
        <UserObject label="&lt;span style=&quot;font-size: 11px; font-weight: 700;&quot;&gt;か&lt;/span&gt;&lt;b&gt;&amp;nbsp;&lt;/b&gt;Syllabary" link="https://en.wikipedia.org/wiki/Syllabary" linkTarget="_blank" id="8tH24z78lBlKkCgDe4kR-275">
          <mxCell style="whiteSpace=wrap;html=1;fillColor=none;" parent="1" vertex="1">
            <mxGeometry x="242.25" y="93" width="76" height="30" as="geometry" />
          </mxCell>
        </UserObject>
        <UserObject label="&lt;span style=&quot;font-size: 10px; font-weight: 700;&quot;&gt;文&lt;/span&gt;&lt;b&gt;&amp;nbsp;&lt;/b&gt;Logographic" link="https://en.wikipedia.org/wiki/Logogram" linkTarget="_blank" id="8tH24z78lBlKkCgDe4kR-276">
          <mxCell style="whiteSpace=wrap;html=1;fillColor=none;" parent="1" vertex="1">
            <mxGeometry x="323.5" y="93" width="94" height="30" as="geometry" />
          </mxCell>
        </UserObject>
        <mxCell id="8tH24z78lBlKkCgDe4kR-283" value="" style="endArrow=classic;html=1;" parent="1" source="120" target="181" edge="1">
          <mxGeometry x="963" y="820" width="50" height="50" as="geometry">
            <mxPoint x="343.4" y="1013" as="sourcePoint" />
            <mxPoint x="398.4" y="1013" as="targetPoint" />
          </mxGeometry>
        </mxCell>
        <UserObject label="" link="https://en.wikipedia.org/wiki/Traditional_Chinese_characters" linkTarget="_blank" id="8tH24z78lBlKkCgDe4kR-284">
          <mxCell style="group" parent="1" vertex="1" connectable="0">
            <mxGeometry x="150.00000000000006" y="924" width="186" height="38" as="geometry" />
          </mxCell>
        </UserObject>
        <UserObject label="Traditional Chinese&lt;br&gt;&lt;div&gt;(Hanzi / Kanji / Hanja)&lt;/div&gt;" link="https://en.wikipedia.org/wiki/Traditional_Chinese_characters" linkTarget="_blank" id="119">
          <mxCell style="whiteSpace=wrap;html=1;fontStyle=1;fillColor=#FFCCFF;" parent="8tH24z78lBlKkCgDe4kR-284" vertex="1">
            <mxGeometry x="10.999999999999972" width="164" height="38" as="geometry" />
          </mxCell>
        </UserObject>
        <UserObject label="&lt;font style=&quot;font-weight: 700; font-size: 10px;&quot;&gt;文&lt;/font&gt;&lt;font style=&quot;font-weight: 700; font-size: 11px;&quot;&gt;&amp;nbsp;&lt;/font&gt;&lt;span style=&quot;font-weight: 700;&quot;&gt;&amp;nbsp; &amp;nbsp; &amp;nbsp; &amp;nbsp; &amp;nbsp; &amp;nbsp; &amp;nbsp; &amp;nbsp; &amp;nbsp; &amp;nbsp; &amp;nbsp; &amp;nbsp; &amp;nbsp; &amp;nbsp; &amp;nbsp; &amp;nbsp; &amp;nbsp; &amp;nbsp; &lt;/span&gt;&lt;b&gt;▼&lt;/b&gt;&lt;span style=&quot;font-weight: 700;&quot;&gt;▸&lt;/span&gt;" link="https://en.wikipedia.org/wiki/Traditional_Chinese_characters" linkTarget="_blank" id="EHmsX5NUKX4iTEuCxSPg-261">
          <mxCell style="text;html=1;align=center;verticalAlign=middle;whiteSpace=wrap;rounded=0;" parent="8tH24z78lBlKkCgDe4kR-284" vertex="1">
            <mxGeometry y="3.5" width="186" height="30" as="geometry" />
          </mxCell>
        </UserObject>
        <UserObject label="&lt;b&gt;दे&amp;nbsp;&lt;/b&gt;Lontara&lt;span style=&quot;font-weight: 700;&quot;&gt;&amp;nbsp;▸&lt;/span&gt;" link="https://en.wikipedia.org/wiki/Lontara_script" linkTarget="_blank" id="hdcds9pAQci7pC2dkwDl-256">
          <mxCell style="whiteSpace=wrap;html=1;dashed=1;fillColor=#FFCCCC;dashPattern=8 8;" parent="1" vertex="1">
            <mxGeometry x="727.55" y="568" width="73.85" height="30" as="geometry" />
          </mxCell>
        </UserObject>
        <mxCell id="hdcds9pAQci7pC2dkwDl-257" value="" style="endArrow=classic;html=1;dashed=1;" parent="1" source="151" target="hdcds9pAQci7pC2dkwDl-256" edge="1">
          <mxGeometry x="671" y="750" width="50" height="50" as="geometry">
            <mxPoint x="668" y="638" as="sourcePoint" />
            <mxPoint x="648" y="608" as="targetPoint" />
          </mxGeometry>
        </mxCell>
        <mxCell id="hdcds9pAQci7pC2dkwDl-258" value="" style="endArrow=classic;html=1;dashed=1;" parent="1" source="hdcds9pAQci7pC2dkwDl-256" target="EHmsX5NUKX4iTEuCxSPg-285" edge="1">
          <mxGeometry x="671" y="750" width="50" height="50" as="geometry">
            <mxPoint x="701" y="638" as="sourcePoint" />
            <mxPoint x="749" y="608" as="targetPoint" />
          </mxGeometry>
        </mxCell>
        <mxCell id="CpTFUX8k8Dy2B1ekyn5k-259" value="" style="endArrow=classic;html=1;" parent="1" source="20" target="88" edge="1">
          <mxGeometry x="175" y="395" width="50" height="50" as="geometry">
            <mxPoint x="559.46" y="190" as="sourcePoint" />
            <mxPoint x="612.46" y="220" as="targetPoint" />
          </mxGeometry>
        </mxCell>
        <UserObject label="&lt;b style=&quot;font-style: normal;&quot;&gt;Ω&lt;/b&gt;&lt;b style=&quot;font-style: normal;&quot;&gt;&amp;nbsp;&lt;/b&gt;&lt;span style=&quot;font-style: normal;&quot;&gt;Duployan Shorthand&lt;/span&gt;&amp;nbsp;&lt;span style=&quot;font-style: normal; font-weight: 700;&quot;&gt;▸&lt;/span&gt;" link="https://en.wikipedia.org/wiki/Duployan_shorthand" linkTarget="_blank" id="CpTFUX8k8Dy2B1ekyn5k-263">
          <mxCell style="whiteSpace=wrap;html=1;dashed=1;fillColor=#E6E6E6;fontStyle=2;dashPattern=8 8;" parent="1" vertex="1">
            <mxGeometry x="176.75" y="270" width="144.75" height="30" as="geometry" />
          </mxCell>
        </UserObject>
        <mxCell id="GPxJiNILHh1gAniWhn0X-257" value="" style="endArrow=classic;html=1;dashed=1;" parent="1" source="18" target="86" edge="1">
          <mxGeometry x="303" y="585" width="50" height="50" as="geometry">
            <mxPoint x="514" y="460" as="sourcePoint" />
            <mxPoint x="618" y="370" as="targetPoint" />
          </mxGeometry>
        </mxCell>
        <UserObject label="&lt;b&gt;दे&amp;nbsp;&lt;/b&gt;Grantha&lt;span style=&quot;font-weight: 700;&quot;&gt;&amp;nbsp;▸&lt;/span&gt;" link="https://en.wikipedia.org/wiki/Grantha_script" linkTarget="_blank" id="T748fFu64r8brhYCckHo-256">
          <mxCell style="whiteSpace=wrap;html=1;dashed=1;fillColor=#FFCCCC;dashPattern=8 8;" parent="1" vertex="1">
            <mxGeometry x="572.25" y="688" width="73.85" height="30" as="geometry" />
          </mxCell>
        </UserObject>
        <mxCell id="T748fFu64r8brhYCckHo-257" value="" style="endArrow=classic;html=1;" parent="1" source="50" target="T748fFu64r8brhYCckHo-256" edge="1">
          <mxGeometry x="661" y="740" width="50" height="50" as="geometry">
            <mxPoint x="541" y="699" as="sourcePoint" />
            <mxPoint x="633" y="665" as="targetPoint" />
          </mxGeometry>
        </mxCell>
        <UserObject label="&lt;b&gt;दे&lt;/b&gt;&lt;b style=&quot;font-size: 11px;&quot;&gt;&amp;nbsp;&lt;/b&gt;&lt;span style=&quot;font-weight: 400;&quot;&gt;Kirat Rai&amp;nbsp;&lt;/span&gt;&lt;b&gt;▸&lt;/b&gt;" link="https://en.wikipedia.org/wiki/Kirat_Rai" linkTarget="_blank" id="La_97x2lhr50nFVP5Xat-256">
          <mxCell style="whiteSpace=wrap;html=1;fontStyle=1;fillColor=#CCFFFF;" parent="1" vertex="1">
            <mxGeometry x="81.75" y="270" width="82.75" height="30" as="geometry" />
          </mxCell>
        </UserObject>
        <mxCell id="La_97x2lhr50nFVP5Xat-257" value="" style="endArrow=classic;html=1;" parent="1" source="47" target="La_97x2lhr50nFVP5Xat-256" edge="1">
          <mxGeometry x="364" y="850" width="50" height="50" as="geometry">
            <mxPoint x="129" y="175" as="sourcePoint" />
            <mxPoint x="179" y="175" as="targetPoint" />
          </mxGeometry>
        </mxCell>
        <UserObject label="&lt;b&gt;Ω&lt;/b&gt;&lt;b&gt;दे&lt;/b&gt;&amp;nbsp;Sunuwar&amp;nbsp;&lt;b&gt;▸&lt;/b&gt;" link="https://en.wikipedia.org/wiki/Sunuwar_alphabet" linkTarget="_blank" id="La_97x2lhr50nFVP5Xat-259">
          <mxCell style="whiteSpace=wrap;html=1;fillColor=#E6E6E6;" parent="1" vertex="1">
            <mxGeometry x="22.400000000000006" y="508" width="96" height="30" as="geometry" />
          </mxCell>
        </UserObject>
        <UserObject label="&lt;b&gt;दे&lt;/b&gt;&lt;b style=&quot;font-size: 11px;&quot;&gt;&amp;nbsp;&lt;/b&gt;&lt;span style=&quot;font-weight: normal;&quot;&gt;Khema&lt;/span&gt;&lt;span style=&quot;font-weight: 400;&quot;&gt;&amp;nbsp;&lt;/span&gt;&lt;b&gt;▸&lt;/b&gt;" link="https://en.wikipedia.org/wiki/Khema_script" linkTarget="_blank" id="La_97x2lhr50nFVP5Xat-260">
          <mxCell style="whiteSpace=wrap;html=1;fontStyle=1;fillColor=#CCFFFF;" parent="1" vertex="1">
            <mxGeometry x="22" y="628" width="74.7" height="30" as="geometry" />
          </mxCell>
        </UserObject>
        <mxCell id="La_97x2lhr50nFVP5Xat-261" value="" style="endArrow=classic;html=1;" parent="1" source="39" target="La_97x2lhr50nFVP5Xat-260" edge="1">
          <mxGeometry x="333" y="615" width="50" height="50" as="geometry">
            <mxPoint x="155" y="548" as="sourcePoint" />
            <mxPoint x="103" y="578" as="targetPoint" />
          </mxGeometry>
        </mxCell>
      </root>
    </mxGraphModel>
  </diagram>
</mxfile>
